<svg xmlns="http://www.w3.org/2000/svg" xmlns:xlink="http://www.w3.org/1999/xlink" width="75" zoomAndPan="magnify" viewBox="0 0 56.25 56.249997" height="75" preserveAspectRatio="xMidYMid meet" version="1.0"><defs><clipPath id="ae67b99529"><path d="M 6 2 L 50 2 L 50 55 L 6 55 Z M 6 2 " clip-rule="nonzero"/></clipPath><clipPath id="4fb041c023"><path d="M 1.410156 7.128906 L 44.277344 -1.183594 L 54.421875 51.128906 L 11.554688 59.445312 Z M 1.410156 7.128906 " clip-rule="nonzero"/></clipPath><clipPath id="e52b7f6db8"><path d="M 1.410156 7.128906 L 81.332031 -8.371094 L 93.171875 52.660156 L 13.246094 68.164062 Z M 1.410156 7.128906 " clip-rule="nonzero"/></clipPath><clipPath id="718abad7d4"><path d="M 6 33 L 33 33 L 33 54 L 6 54 Z M 6 33 " clip-rule="nonzero"/></clipPath><clipPath id="5bbe19defe"><path d="M 1.410156 7.128906 L 44.277344 -1.183594 L 54.421875 51.128906 L 11.554688 59.445312 Z M 1.410156 7.128906 " clip-rule="nonzero"/></clipPath><clipPath id="dcfcf3e8f3"><path d="M 1.410156 7.128906 L 81.332031 -8.371094 L 93.171875 52.660156 L 13.246094 68.164062 Z M 1.410156 7.128906 " clip-rule="nonzero"/></clipPath><clipPath id="327a404d44"><path d="M 6 5 L 24 5 L 24 34 L 6 34 Z M 6 5 " clip-rule="nonzero"/></clipPath><clipPath id="472fd2afdc"><path d="M 1.410156 7.128906 L 44.277344 -1.183594 L 54.421875 51.128906 L 11.554688 59.445312 Z M 1.410156 7.128906 " clip-rule="nonzero"/></clipPath><clipPath id="9a85b7b054"><path d="M 1.410156 7.128906 L 81.332031 -8.371094 L 93.171875 52.660156 L 13.246094 68.164062 Z M 1.410156 7.128906 " clip-rule="nonzero"/></clipPath></defs><g clip-path="url(#ae67b99529)"><g clip-path="url(#4fb041c023)"><g clip-path="url(#e52b7f6db8)"><path fill="#55db9c" d="M 23.414062 2.863281 C 25.523438 10.824219 37.125 28.652344 49.195312 27.5625 C 36.054688 33.140625 33.1875 45.738281 32.414062 54.398438 C 29.921875 47.117188 22.402344 32.757812 6.621094 33.992188 C 12.640625 32.359375 24.425781 23.847656 23.414062 2.863281 Z M 23.414062 2.863281 " fill-opacity="1" fill-rule="nonzero"/></g></g></g><g clip-path="url(#718abad7d4)"><g clip-path="url(#5bbe19defe)"><g clip-path="url(#dcfcf3e8f3)"><path fill="#0a0a0a" d="M 32.238281 53.890625 C 29.589844 46.5 22.109375 32.898438 6.8125 33.980469 C 20.792969 37.445312 25.8125 44.160156 32.234375 53.941406 C 32.238281 53.925781 32.238281 53.90625 32.238281 53.890625 Z M 32.238281 53.890625 " fill-opacity="1" fill-rule="nonzero"/></g></g></g><g clip-path="url(#327a404d44)"><g clip-path="url(#472fd2afdc)"><g clip-path="url(#9a85b7b054)"><path fill="#0a0a0a" d="M 6.738281 33.960938 C 6.695312 33.949219 6.652344 33.9375 6.609375 33.929688 C 12.539062 32.320312 19.960938 26.035156 23.480469 5.242188 C 23.523438 24.367188 12.558594 32.316406 6.738281 33.960938 Z M 6.738281 33.960938 " fill-opacity="1" fill-rule="nonzero"/></g></g></g></svg>