<svg xmlns="http://www.w3.org/2000/svg" xmlns:xlink="http://www.w3.org/1999/xlink" width="75" zoomAndPan="magnify" viewBox="0 0 56.25 56.249997" height="75" preserveAspectRatio="xMidYMid meet" version="1.0"><defs><clipPath id="605cb0d6c6"><path d="M 7 2 L 50 2 L 50 54 L 7 54 Z M 7 2 " clip-rule="nonzero"/></clipPath><clipPath id="b3ae49b9c4"><path d="M 12.367188 -2 L 55.335938 5.765625 L 45.863281 58.203125 L 2.890625 50.4375 Z M 12.367188 -2 " clip-rule="nonzero"/></clipPath><clipPath id="c78d9f541c"><path d="M 12.367188 -2 L 93.210938 12.609375 L 82.023438 74.515625 L 1.179688 59.90625 Z M 12.367188 -2 " clip-rule="nonzero"/></clipPath><clipPath id="1495a2cd48"><path d="M 7 25 L 25 25 L 25 54 L 7 54 Z M 7 25 " clip-rule="nonzero"/></clipPath><clipPath id="c45f7d8613"><path d="M 12.367188 -2 L 55.335938 5.765625 L 45.863281 58.203125 L 2.890625 50.4375 Z M 12.367188 -2 " clip-rule="nonzero"/></clipPath><clipPath id="27cfd6cb3b"><path d="M 12.367188 -2 L 93.210938 12.609375 L 82.023438 74.515625 L 1.179688 59.90625 Z M 12.367188 -2 " clip-rule="nonzero"/></clipPath><clipPath id="d66e7caeff"><path d="M 7 4 L 34 4 L 34 26 L 7 26 Z M 7 4 " clip-rule="nonzero"/></clipPath><clipPath id="ba7821965e"><path d="M 12.367188 -2 L 55.335938 5.765625 L 45.863281 58.203125 L 2.890625 50.4375 Z M 12.367188 -2 " clip-rule="nonzero"/></clipPath><clipPath id="79d57af9c9"><path d="M 12.367188 -2 L 93.210938 12.609375 L 82.023438 74.515625 L 1.179688 59.90625 Z M 12.367188 -2 " clip-rule="nonzero"/></clipPath></defs><g clip-path="url(#605cb0d6c6)"><g clip-path="url(#b3ae49b9c4)"><g clip-path="url(#c78d9f541c)"><path fill="#55db9c" d="M 34.652344 2.027344 C 33.730469 10.296875 38.136719 31.335938 49.902344 34.71875 C 35.488281 35.171875 28.179688 45.988281 24.28125 53.863281 C 24.597656 46.089844 22.769531 29.816406 7.453125 25.207031 C 13.71875 25.871094 27.929688 22.164062 34.652344 2.027344 Z M 34.652344 2.027344 " fill-opacity="1" fill-rule="nonzero"/></g></g></g><g clip-path="url(#1495a2cd48)"><g clip-path="url(#c45f7d8613)"><g clip-path="url(#27cfd6cb3b)"><path fill="#0a0a0a" d="M 24.304688 53.316406 C 24.511719 45.386719 22.4375 29.84375 7.636719 25.265625 C 19.539062 33.644531 21.8125 41.804688 24.28125 53.367188 C 24.289062 53.351562 24.296875 53.335938 24.304688 53.316406 Z M 24.304688 53.316406 " fill-opacity="1" fill-rule="nonzero"/></g></g></g><g clip-path="url(#d66e7caeff)"><g clip-path="url(#ba7821965e)"><g clip-path="url(#79d57af9c9)"><path fill="#0a0a0a" d="M 7.574219 25.222656 C 7.539062 25.195312 7.5 25.167969 7.464844 25.144531 C 13.636719 25.796875 22.925781 22.59375 33.84375 4.292969 C 26.894531 22.324219 13.65625 25.800781 7.574219 25.222656 Z M 7.574219 25.222656 " fill-opacity="1" fill-rule="nonzero"/></g></g></g></svg>