<svg xmlns="http://www.w3.org/2000/svg" xmlns:xlink="http://www.w3.org/1999/xlink" width="300" zoomAndPan="magnify" viewBox="0 0 224.87999 74.999997" height="100" preserveAspectRatio="xMidYMid meet" version="1.0"><defs><g/><clipPath id="b34a6c9cb3"><path d="M 0.121094 4 L 2 4 L 2 6 L 0.121094 6 Z M 0.121094 4 " clip-rule="nonzero"/></clipPath><clipPath id="93e312d328"><rect x="0" width="4" y="0" height="7"/></clipPath><clipPath id="924cd75ed4"><path d="M 0 0.0195312 L 224.761719 0.0195312 L 224.761719 65.105469 L 0 65.105469 Z M 0 0.0195312 " clip-rule="nonzero"/></clipPath><clipPath id="7b70b71332"><path d="M 179 17 L 224.761719 17 L 224.761719 51 L 179 51 Z M 179 17 " clip-rule="nonzero"/></clipPath><clipPath id="3b29e5bd34"><path d="M 194 27 L 224.761719 27 L 224.761719 47 L 194 47 Z M 194 27 " clip-rule="nonzero"/></clipPath><clipPath id="92dd2c505c"><path d="M 219 36 L 224.761719 36 L 224.761719 40 L 219 40 Z M 219 36 " clip-rule="nonzero"/></clipPath><clipPath id="a1d00f9bc5"><path d="M 200 49 L 224.761719 49 L 224.761719 61 L 200 61 Z M 200 49 " clip-rule="nonzero"/></clipPath><clipPath id="995d9a5777"><path d="M 139 0.0195312 L 154 0.0195312 L 154 20 L 139 20 Z M 139 0.0195312 " clip-rule="nonzero"/></clipPath><clipPath id="47096f2b52"><path d="M 149 0.0195312 L 161 0.0195312 L 161 8 L 149 8 Z M 149 0.0195312 " clip-rule="nonzero"/></clipPath><clipPath id="62124eb266"><path d="M 162 0.0195312 L 183 0.0195312 L 183 16 L 162 16 Z M 162 0.0195312 " clip-rule="nonzero"/></clipPath><clipPath id="7e16f40436"><path d="M 168 0.0195312 L 203 0.0195312 L 203 26 L 168 26 Z M 168 0.0195312 " clip-rule="nonzero"/></clipPath><clipPath id="095e3f7918"><path d="M 170 0.0195312 L 215 0.0195312 L 215 32 L 170 32 Z M 170 0.0195312 " clip-rule="nonzero"/></clipPath><clipPath id="b2d00e981d"><path d="M 201 0.0195312 L 224.761719 0.0195312 L 224.761719 7 L 201 7 Z M 201 0.0195312 " clip-rule="nonzero"/></clipPath><clipPath id="08462defa1"><path d="M 207 0.0195312 L 224.761719 0.0195312 L 224.761719 10 L 207 10 Z M 207 0.0195312 " clip-rule="nonzero"/></clipPath><clipPath id="22a600a976"><path d="M 178 0.0195312 L 224.761719 0.0195312 L 224.761719 42 L 178 42 Z M 178 0.0195312 " clip-rule="nonzero"/></clipPath><clipPath id="4a3d49c52c"><path d="M 214 12 L 224.761719 12 L 224.761719 21 L 214 21 Z M 214 12 " clip-rule="nonzero"/></clipPath><clipPath id="17e0184af8"><path d="M 78 0.0195312 L 90 0.0195312 L 90 19 L 78 19 Z M 78 0.0195312 " clip-rule="nonzero"/></clipPath><clipPath id="20d005547b"><path d="M 85 0.0195312 L 91 0.0195312 L 91 3 L 85 3 Z M 85 0.0195312 " clip-rule="nonzero"/></clipPath><clipPath id="36f337eb55"><path d="M 103 0.0195312 L 106 0.0195312 L 106 2 L 103 2 Z M 103 0.0195312 " clip-rule="nonzero"/></clipPath><clipPath id="904a9370bd"><path d="M 115 0.0195312 L 117 0.0195312 L 117 7 L 115 7 Z M 115 0.0195312 " clip-rule="nonzero"/></clipPath><clipPath id="4108dd940f"><path d="M 121 0.0195312 L 125 0.0195312 L 125 11 L 121 11 Z M 121 0.0195312 " clip-rule="nonzero"/></clipPath><clipPath id="c08356d37d"><path d="M 134 0.0195312 L 143 0.0195312 L 143 14 L 134 14 Z M 134 0.0195312 " clip-rule="nonzero"/></clipPath><clipPath id="4c6d759121"><path d="M 0 7 L 49 7 L 49 47 L 0 47 Z M 0 7 " clip-rule="nonzero"/></clipPath><clipPath id="b8f537ea6c"><path d="M 0 0.0195312 L 40 0.0195312 L 40 34 L 0 34 Z M 0 0.0195312 " clip-rule="nonzero"/></clipPath><clipPath id="67c1e83f27"><path d="M 0 0.0195312 L 26 0.0195312 L 26 12 L 0 12 Z M 0 0.0195312 " clip-rule="nonzero"/></clipPath><clipPath id="b0834df5a3"><path d="M 14 0.0195312 L 51 0.0195312 L 51 24 L 14 24 Z M 14 0.0195312 " clip-rule="nonzero"/></clipPath><clipPath id="e5c04b5e1a"><path d="M 35 0.0195312 L 63 0.0195312 L 63 22 L 35 22 Z M 35 0.0195312 " clip-rule="nonzero"/></clipPath><clipPath id="32fc23f15a"><path d="M 45 0.0195312 L 70 0.0195312 L 70 22 L 45 22 Z M 45 0.0195312 " clip-rule="nonzero"/></clipPath><clipPath id="9324e4448f"><path d="M 67 0.0195312 L 82 0.0195312 L 82 17 L 67 17 Z M 67 0.0195312 " clip-rule="nonzero"/></clipPath><clipPath id="b8d8c5334f"><path d="M 0 54 L 28 54 L 28 65.105469 L 0 65.105469 Z M 0 54 " clip-rule="nonzero"/></clipPath><clipPath id="969c535120"><path d="M 0 45 L 34 45 L 34 62 L 0 62 Z M 0 45 " clip-rule="nonzero"/></clipPath><clipPath id="3b1bff77bd"><path d="M 0 32 L 1 32 L 1 33 L 0 33 Z M 0 32 " clip-rule="nonzero"/></clipPath><clipPath id="f31288c5ce"><path d="M 0 23 L 40 23 L 40 50 L 0 50 Z M 0 23 " clip-rule="nonzero"/></clipPath><clipPath id="db2ac5b6da"><path d="M 0 15 L 10 15 L 10 23 L 0 23 Z M 0 15 " clip-rule="nonzero"/></clipPath><clipPath id="824deb5743"><rect x="0" width="225" y="0" height="66"/></clipPath></defs><g transform="matrix(1, 0, 0, 1, 74, 62)"><g clip-path="url(#93e312d328)"><g clip-path="url(#b34a6c9cb3)"><g fill="#000000" fill-opacity="1"><g transform="translate(0.539073, 4.562045)"><g><path d="M 0.65625 -0.4375 L 0.671875 -0.40625 C 0.640625 -0.28125 0.59375 -0.132812 0.53125 0.03125 C 0.476562 0.195312 0.414062 0.347656 0.34375 0.484375 L 0.109375 0.484375 C 0.148438 0.359375 0.1875 0.203125 0.21875 0.015625 C 0.257812 -0.171875 0.289062 -0.320312 0.3125 -0.4375 Z M 0.65625 -0.4375 "/></g></g></g></g></g></g><g clip-path="url(#924cd75ed4)"><g transform="matrix(1, 0, 0, 1, 0, -0.000000000000000847)"><g clip-path="url(#824deb5743)"><g clip-path="url(#7b70b71332)"><path fill="#000000" d="M 224.878906 20.75 L 224.878906 17.265625 C 202.53125 34.160156 180.960938 49.558594 179.554688 50.558594 L 195.5625 39.925781 C 203.671875 34.539062 214.085938 27.742188 224.878906 20.75 Z M 224.878906 20.75 " fill-opacity="1" fill-rule="nonzero"/></g><g clip-path="url(#3b29e5bd34)"><path fill="#000000" d="M 224.878906 29.222656 L 224.878906 27.183594 C 219.082031 31.03125 213.617188 34.597656 208.996094 37.582031 C 201.242188 42.546875 195.835938 46.015625 194.851562 46.660156 C 196.375 45.765625 209.164062 38.265625 224.878906 29.222656 Z M 224.878906 29.222656 " fill-opacity="1" fill-rule="nonzero"/></g><g clip-path="url(#92dd2c505c)"><path fill="#000000" d="M 224.878906 36.449219 L 224.878906 36.125 C 222.035156 37.757812 220.167969 38.820312 219.695312 39.082031 C 220.179688 38.875 222.046875 37.910156 224.878906 36.449219 Z M 224.878906 36.449219 " fill-opacity="1" fill-rule="nonzero"/></g><g clip-path="url(#a1d00f9bc5)"><path fill="#000000" d="M 224.878906 50.601562 L 224.878906 49.28125 C 221.679688 50.726562 218.671875 52.085938 215.921875 53.308594 C 207.417969 57.085938 201.46875 59.699219 200.390625 60.203125 C 201.785156 59.652344 211.707031 55.71875 224.878906 50.601562 Z M 224.878906 50.601562 " fill-opacity="1" fill-rule="nonzero"/></g><g clip-path="url(#995d9a5777)"><path fill="#000000" d="M 153.371094 -16.320312 L 151.519531 -16.320312 C 145.675781 2.179688 140.695312 17.066406 139.894531 19.449219 C 140.816406 17.015625 146.359375 2.023438 153.371094 -16.320312 Z M 153.371094 -16.320312 " fill-opacity="1" fill-rule="nonzero"/></g><g clip-path="url(#47096f2b52)"><path fill="#000000" d="M 160.472656 -16.320312 L 159.203125 -16.320312 C 154.261719 -3.441406 150.441406 6.207031 149.925781 7.558594 C 150.492188 6.207031 154.730469 -3.503906 160.472656 -16.320312 Z M 160.472656 -16.320312 " fill-opacity="1" fill-rule="nonzero"/></g><g clip-path="url(#62124eb266)"><path fill="#000000" d="M 182.640625 -16.320312 L 180.496094 -16.320312 C 177.015625 -10.128906 173.695312 -4.335938 170.871094 0.527344 L 162.316406 15.257812 C 163.363281 13.644531 172.054688 -0.046875 182.640625 -16.320312 Z M 182.640625 -16.320312 " fill-opacity="1" fill-rule="nonzero"/></g><g clip-path="url(#7e16f40436)"><path fill="#000000" d="M 202.074219 -16.320312 L 198.503906 -16.320312 C 183.78125 4.324219 169.480469 23.382812 168.089844 25.246094 C 169.585938 23.382812 185.355469 3.78125 202.074219 -16.320312 Z M 202.074219 -16.320312 " fill-opacity="1" fill-rule="nonzero"/></g><g clip-path="url(#095e3f7918)"><path fill="#000000" d="M 214.925781 -16.320312 L 210.054688 -16.320312 C 209.332031 -15.445312 208.625 -14.578125 207.898438 -13.679688 C 190.105469 8.402344 171.6875 29.855469 170.007812 31.832031 C 171.746094 29.917969 190.878906 9.011719 210.378906 -11.535156 C 211.894531 -13.136719 213.417969 -14.730469 214.925781 -16.320312 Z M 214.925781 -16.320312 " fill-opacity="1" fill-rule="nonzero"/></g><g clip-path="url(#b2d00e981d)"><path fill="#000000" d="M 224.878906 -16.101562 L 224.878906 -16.320312 L 222.742188 -16.320312 C 212.339844 -4.96875 203.03125 4.996094 201.707031 6.390625 C 203.121094 5.019531 213.429688 -5.042969 224.878906 -16.101562 Z M 224.878906 -16.101562 " fill-opacity="1" fill-rule="nonzero"/></g><g clip-path="url(#08462defa1)"><path fill="#000000" d="M 224.878906 -6.292969 L 224.878906 -7.976562 C 215.503906 1.320312 207.773438 8.816406 207.15625 9.402344 C 207.796875 8.851562 215.382812 2.085938 224.878906 -6.292969 Z M 224.878906 -6.292969 " fill-opacity="1" fill-rule="nonzero"/></g><g clip-path="url(#22a600a976)"><path fill="#000000" d="M 224.878906 5.328125 L 224.878906 0.960938 C 224.410156 1.394531 223.945312 1.8125 223.476562 2.238281 C 212.460938 12.261719 201.3125 22.164062 192.894531 29.546875 C 184.976562 36.40625 179.5625 41.128906 178.894531 41.691406 C 180.273438 40.582031 202.3125 22.855469 224.878906 5.328125 Z M 224.878906 5.328125 " fill-opacity="1" fill-rule="nonzero"/></g><g clip-path="url(#4a3d49c52c)"><path fill="#000000" d="M 224.878906 13.125 L 224.878906 12.300781 C 218.839844 17.117188 214.582031 20.476562 214.0625 20.882812 Z M 224.878906 13.125 " fill-opacity="1" fill-rule="nonzero"/></g><g clip-path="url(#17e0184af8)"><path fill="#000000" d="M 89.59375 18.25 C 89.257812 17.015625 85.15625 2.347656 80.144531 -16.320312 L 78.445312 -16.320312 C 84.582031 2.261719 89.222656 17.015625 89.59375 18.25 Z M 89.59375 18.25 " fill-opacity="1" fill-rule="nonzero"/></g><g clip-path="url(#20d005547b)"><path fill="#000000" d="M 90.648438 2.511719 C 90.382812 1.3125 88.792969 -6.019531 86.628906 -16.320312 L 85.742188 -16.320312 C 88.46875 -6.03125 90.347656 1.3125 90.648438 2.511719 Z M 90.648438 2.511719 " fill-opacity="1" fill-rule="nonzero"/></g><g clip-path="url(#36f337eb55)"><path fill="#000000" d="M 103.40625 -16.320312 C 104.445312 -6.613281 105.101562 0.234375 105.222656 1.417969 C 105.152344 0.257812 104.734375 -6.582031 104.195312 -16.320312 Z M 103.40625 -16.320312 " fill-opacity="1" fill-rule="nonzero"/></g><g clip-path="url(#904a9370bd)"><path fill="#000000" d="M 116.996094 -16.320312 L 116.027344 -16.320312 C 115.960938 -3.03125 115.800781 6.246094 115.800781 6.246094 C 115.800781 6.246094 116.25 -3.03125 116.996094 -16.320312 Z M 116.996094 -16.320312 " fill-opacity="1" fill-rule="nonzero"/></g><g clip-path="url(#4108dd940f)"><path fill="#000000" d="M 124.355469 -16.320312 L 123.195312 -16.320312 C 122.144531 -0.785156 121.242188 10.40625 121.242188 10.40625 C 121.242188 10.40625 122.488281 -0.808594 124.355469 -16.320312 Z M 124.355469 -16.320312 " fill-opacity="1" fill-rule="nonzero"/></g><g clip-path="url(#c08356d37d)"><path fill="#000000" d="M 142.25 -16.320312 L 140.871094 -16.320312 C 139.976562 -12.3125 139.132812 -8.535156 138.347656 -5.125 C 135.816406 5.769531 134.121094 13.039062 134.121094 13.039062 C 134.121094 13.039062 137.535156 0.472656 142.25 -16.320312 Z M 142.25 -16.320312 " fill-opacity="1" fill-rule="nonzero"/></g><g clip-path="url(#4c6d759121)"><path fill="#000000" d="M 48.058594 46.585938 C 45.949219 44.90625 22.90625 26.609375 0.203125 7.867188 L -0.00390625 7.699219 L -0.00390625 11.832031 C 23.484375 28.304688 45.949219 45.042969 48.058594 46.585938 Z M 48.058594 46.585938 " fill-opacity="1" fill-rule="nonzero"/></g><g clip-path="url(#b8f537ea6c)"><path fill="#000000" d="M 39.792969 33.277344 C 38.054688 31.714844 18.921875 14.644531 -0.00390625 -2.804688 L -0.00390625 1.003906 C 19.53125 16.445312 38.03125 31.832031 39.792969 33.277344 Z M 39.792969 33.277344 " fill-opacity="1" fill-rule="nonzero"/></g><g clip-path="url(#67c1e83f27)"><path fill="#000000" d="M 25.03125 11.945312 C 24.246094 11.15625 12.609375 -0.421875 -0.00390625 -13.207031 L -0.00390625 -10.679688 C 12.886719 0.808594 24.234375 11.210938 25.03125 11.945312 Z M 25.03125 11.945312 " fill-opacity="1" fill-rule="nonzero"/></g><g clip-path="url(#b0834df5a3)"><path fill="#000000" d="M 50.957031 23.765625 C 49.503906 21.988281 34.070312 3.300781 18.367188 -16.328125 L 14.511719 -16.328125 C 32.269531 2.667969 49.386719 21.96875 50.957031 23.765625 Z M 50.957031 23.765625 " fill-opacity="1" fill-rule="nonzero"/></g><g clip-path="url(#e5c04b5e1a)"><path fill="#000000" d="M 51.910156 6.789062 C 57.554688 14.746094 61.492188 20.316406 62.195312 21.273438 C 61.035156 19.5 50.136719 2.824219 37.980469 -16.320312 L 35.15625 -16.320312 C 41.382812 -7.851562 47.25 0.257812 51.910156 6.789062 Z M 51.910156 6.789062 " fill-opacity="1" fill-rule="nonzero"/></g><g clip-path="url(#32fc23f15a)"><path fill="#000000" d="M 69.097656 21.597656 C 68.390625 20.347656 58.867188 3.535156 47.957031 -16.339844 L 45.421875 -16.339844 C 57.914062 3.261719 68.351562 20.367188 69.097656 21.597656 Z M 69.097656 21.597656 " fill-opacity="1" fill-rule="nonzero"/></g><g clip-path="url(#9324e4448f)"><path fill="#000000" d="M 81.105469 16.195312 C 80.878906 15.613281 75.585938 1.617188 69.011719 -16.34375 L 67.273438 -16.34375 C 75.007812 1.492188 80.839844 15.601562 81.105469 16.195312 Z M 81.105469 16.195312 " fill-opacity="1" fill-rule="nonzero"/></g><g clip-path="url(#b8d8c5334f)"><path fill="#000000" d="M 27.699219 65.273438 C 26.175781 64.691406 14.777344 60.339844 -0.00390625 54.558594 L -0.00390625 55.980469 C 14.851562 60.863281 26.164062 64.742188 27.699219 65.273438 Z M 27.699219 65.273438 " fill-opacity="1" fill-rule="nonzero"/></g><g clip-path="url(#969c535120)"><path fill="#000000" d="M 33.371094 61.472656 C 31.59375 60.652344 17.425781 54.160156 -0.00390625 45.964844 L -0.00390625 47.824219 C 17.613281 54.863281 31.648438 60.746094 33.371094 61.472656 Z M 33.371094 61.472656 " fill-opacity="1" fill-rule="nonzero"/></g><g clip-path="url(#3b1bff77bd)"><path fill="#000000" d="M 0.476562 32.914062 C 0.359375 32.832031 0.203125 32.738281 -0.00390625 32.609375 L -0.00390625 32.640625 C 0.203125 32.765625 0.371094 32.859375 0.476562 32.914062 Z M 0.476562 32.914062 " fill-opacity="1" fill-rule="nonzero"/></g><g clip-path="url(#f31288c5ce)"><path fill="#000000" d="M -0.00390625 26.089844 C 19.949219 37.753906 37.324219 48.398438 39.765625 49.886719 C 37.324219 48.28125 19.625 36.597656 -0.00390625 23.277344 Z M -0.00390625 26.089844 " fill-opacity="1" fill-rule="nonzero"/></g><g clip-path="url(#db2ac5b6da)"><path fill="#000000" d="M -0.00390625 16.550781 C 4.980469 19.878906 8.457031 22.238281 9.269531 22.789062 C 8.457031 22.207031 4.9375 19.59375 -0.00390625 15.894531 Z M -0.00390625 16.550781 " fill-opacity="1" fill-rule="nonzero"/></g></g></g></g></svg>