<svg xmlns="http://www.w3.org/2000/svg" xmlns:xlink="http://www.w3.org/1999/xlink" width="75" zoomAndPan="magnify" viewBox="0 0 56.25 56.249997" height="75" preserveAspectRatio="xMidYMid meet" version="1.0"><defs><clipPath id="04bab369cf"><path d="M 1 24 L 36 24 L 36 55 L 1 55 Z M 1 24 " clip-rule="nonzero"/></clipPath><clipPath id="d60827f4cb"><path d="M 0 37.300781 L 26.546875 -10.605469 L 68.628906 12.710938 L 42.082031 60.617188 Z M 0 37.300781 " clip-rule="nonzero"/></clipPath><clipPath id="042614119f"><path d="M 0 37.300781 L 26.546875 -10.605469 L 68.628906 12.710938 L 42.082031 60.617188 Z M 0 37.300781 " clip-rule="nonzero"/></clipPath><clipPath id="c56e3de224"><path d="M 14 4 L 43 4 L 43 44 L 14 44 Z M 14 4 " clip-rule="nonzero"/></clipPath><clipPath id="8b595a4de4"><path d="M 0 37.300781 L 26.546875 -10.605469 L 68.628906 12.710938 L 42.082031 60.617188 Z M 0 37.300781 " clip-rule="nonzero"/></clipPath><clipPath id="77a4dbb60f"><path d="M 0 37.300781 L 26.546875 -10.605469 L 68.628906 12.710938 L 42.082031 60.617188 Z M 0 37.300781 " clip-rule="nonzero"/></clipPath><clipPath id="42a1b56e15"><path d="M 40 4 L 55 4 L 55 40 L 40 40 Z M 40 4 " clip-rule="nonzero"/></clipPath><clipPath id="e1d410c132"><path d="M 0 37.300781 L 26.546875 -10.605469 L 68.628906 12.710938 L 42.082031 60.617188 Z M 0 37.300781 " clip-rule="nonzero"/></clipPath><clipPath id="99f30787d9"><path d="M 0 37.300781 L 26.546875 -10.605469 L 68.628906 12.710938 L 42.082031 60.617188 Z M 0 37.300781 " clip-rule="nonzero"/></clipPath><clipPath id="3e983222e8"><path d="M 31 54 L 32 54 L 32 55 L 31 55 Z M 31 54 " clip-rule="nonzero"/></clipPath><clipPath id="4b0fe0e131"><path d="M 0 37.300781 L 26.546875 -10.605469 L 68.628906 12.710938 L 42.082031 60.617188 Z M 0 37.300781 " clip-rule="nonzero"/></clipPath><clipPath id="50cba8bfbb"><path d="M 0 37.300781 L 26.546875 -10.605469 L 68.628906 12.710938 L 42.082031 60.617188 Z M 0 37.300781 " clip-rule="nonzero"/></clipPath><clipPath id="f2f7ca88d4"><path d="M 7 24 L 36 24 L 36 55 L 7 55 Z M 7 24 " clip-rule="nonzero"/></clipPath><clipPath id="3f4cb4f73d"><path d="M 0 37.300781 L 26.546875 -10.605469 L 68.628906 12.710938 L 42.082031 60.617188 Z M 0 37.300781 " clip-rule="nonzero"/></clipPath><clipPath id="2d6f097fe3"><path d="M 0 37.300781 L 26.546875 -10.605469 L 68.628906 12.710938 L 42.082031 60.617188 Z M 0 37.300781 " clip-rule="nonzero"/></clipPath><clipPath id="3324894eb3"><path d="M 13 14 L 43 14 L 43 45 L 13 45 Z M 13 14 " clip-rule="nonzero"/></clipPath><clipPath id="7f6dea9700"><path d="M 0 37.300781 L 26.546875 -10.605469 L 68.628906 12.710938 L 42.082031 60.617188 Z M 0 37.300781 " clip-rule="nonzero"/></clipPath><clipPath id="5a21a1ce41"><path d="M 0 37.300781 L 26.546875 -10.605469 L 68.628906 12.710938 L 42.082031 60.617188 Z M 0 37.300781 " clip-rule="nonzero"/></clipPath><clipPath id="f7fd255d5c"><path d="M 39 4 L 54 4 L 54 41 L 39 41 Z M 39 4 " clip-rule="nonzero"/></clipPath><clipPath id="621ab60a9a"><path d="M 0 37.300781 L 26.546875 -10.605469 L 68.628906 12.710938 L 42.082031 60.617188 Z M 0 37.300781 " clip-rule="nonzero"/></clipPath><clipPath id="e583dc4d89"><path d="M 0 37.300781 L 26.546875 -10.605469 L 68.628906 12.710938 L 42.082031 60.617188 Z M 0 37.300781 " clip-rule="nonzero"/></clipPath></defs><g clip-path="url(#04bab369cf)"><g clip-path="url(#d60827f4cb)"><g clip-path="url(#042614119f)"><path fill="#f6ce14" d="M 31.125 54.542969 L 1.433594 34.714844 L 7.324219 24.082031 L 35.277344 48.535156 Z M 31.125 54.542969 " fill-opacity="1" fill-rule="nonzero"/></g></g></g><g clip-path="url(#c56e3de224)"><g clip-path="url(#8b595a4de4)"><g clip-path="url(#77a4dbb60f)"><path fill="#f6ce14" d="M 26.117188 4.21875 L 14.191406 14.878906 L 37.683594 43.152344 L 42.84375 39.984375 Z M 26.117188 4.21875 " fill-opacity="1" fill-rule="nonzero"/></g></g></g><g clip-path="url(#42a1b56e15)"><g clip-path="url(#e1d410c132)"><g clip-path="url(#99f30787d9)"><path fill="#f6ce14" d="M 40.441406 4.320312 L 54.261719 4.722656 L 53.988281 39.0625 L 48.949219 38.871094 Z M 40.441406 4.320312 " fill-opacity="1" fill-rule="nonzero"/></g></g></g><g clip-path="url(#3e983222e8)"><g clip-path="url(#4b0fe0e131)"><g clip-path="url(#50cba8bfbb)"><path fill="#0a0a0a" d="M 31.007812 54.464844 L 31.105469 54.53125 L 31.109375 54.535156 Z M 31.007812 54.464844 " fill-opacity="1" fill-rule="nonzero"/></g></g></g><g clip-path="url(#f2f7ca88d4)"><g clip-path="url(#3f4cb4f73d)"><g clip-path="url(#2d6f097fe3)"><path fill="#0a0a0a" d="M 31.125 54.535156 L 35.277344 48.535156 L 7.351562 24.105469 L 8.941406 24.21875 L 35.910156 48.378906 L 31.820312 54.589844 Z M 31.125 54.535156 " fill-opacity="1" fill-rule="nonzero"/></g></g></g><g clip-path="url(#3324894eb3)"><g clip-path="url(#7f6dea9700)"><g clip-path="url(#5a21a1ce41)"><path fill="#0a0a0a" d="M 14.191406 14.875 L 14.1875 14.878906 L 13.277344 16.691406 L 37.855469 44.863281 L 42.578125 41.453125 L 42.839844 39.992188 L 42.835938 39.988281 L 37.679688 43.148438 Z M 14.191406 14.875 " fill-opacity="1" fill-rule="nonzero"/></g></g></g><g clip-path="url(#f7fd255d5c)"><g clip-path="url(#621ab60a9a)"><g clip-path="url(#e583dc4d89)"><path fill="#0a0a0a" d="M 53.96875 39.058594 L 48.949219 38.871094 L 40.441406 4.320312 L 40.4375 4.320312 L 39.738281 5.242188 L 48.449219 40.058594 L 54 39.445312 Z M 53.96875 39.058594 " fill-opacity="1" fill-rule="nonzero"/></g></g></g></svg>