<svg xmlns="http://www.w3.org/2000/svg" xmlns:xlink="http://www.w3.org/1999/xlink" width="110" zoomAndPan="magnify" viewBox="0 0 82.5 56.249996" height="75" preserveAspectRatio="xMidYMid meet" version="1.0"><defs><g/><clipPath id="f2bb45f176"><path d="M 6 1 L 26 1 L 26 33 L 6 33 Z M 6 1 " clip-rule="nonzero"/></clipPath><clipPath id="cb069ad2df"><path d="M 9.515625 -8.339844 L 86.421875 22.597656 L 71.230469 60.363281 L -5.675781 29.425781 Z M 9.515625 -8.339844 " clip-rule="nonzero"/></clipPath><clipPath id="f1e1901473"><path d="M 9.515625 -8.339844 L 86.421875 22.597656 L 71.230469 60.363281 L -5.675781 29.425781 Z M 9.515625 -8.339844 " clip-rule="nonzero"/></clipPath><clipPath id="8f2bb7784c"><path d="M 9.515625 -8.339844 L 86.421875 22.597656 L 71.230469 60.363281 L -5.675781 29.425781 Z M 9.515625 -8.339844 " clip-rule="nonzero"/></clipPath><clipPath id="e756e6fb82"><path d="M 26 13 L 34 13 L 34 28 L 26 28 Z M 26 13 " clip-rule="nonzero"/></clipPath><clipPath id="f0a2cb6f10"><path d="M 9.515625 -8.339844 L 86.421875 22.597656 L 71.230469 60.363281 L -5.675781 29.425781 Z M 9.515625 -8.339844 " clip-rule="nonzero"/></clipPath><clipPath id="e6fe0773c3"><path d="M 9.515625 -8.339844 L 86.421875 22.597656 L 71.230469 60.363281 L -5.675781 29.425781 Z M 9.515625 -8.339844 " clip-rule="nonzero"/></clipPath><clipPath id="0dd3eb47c5"><path d="M 9.515625 -8.339844 L 86.421875 22.597656 L 71.230469 60.363281 L -5.675781 29.425781 Z M 9.515625 -8.339844 " clip-rule="nonzero"/></clipPath><clipPath id="daf2e3c7e3"><path d="M 35 6 L 55 6 L 55 32 L 35 32 Z M 35 6 " clip-rule="nonzero"/></clipPath><clipPath id="4f765c092f"><path d="M 9.515625 -8.339844 L 86.421875 22.597656 L 71.230469 60.363281 L -5.675781 29.425781 Z M 9.515625 -8.339844 " clip-rule="nonzero"/></clipPath><clipPath id="a4fa102c33"><path d="M 9.515625 -8.339844 L 86.421875 22.597656 L 71.230469 60.363281 L -5.675781 29.425781 Z M 9.515625 -8.339844 " clip-rule="nonzero"/></clipPath><clipPath id="4c6631d714"><path d="M 9.515625 -8.339844 L 86.421875 22.597656 L 71.230469 60.363281 L -5.675781 29.425781 Z M 9.515625 -8.339844 " clip-rule="nonzero"/></clipPath><clipPath id="bf97a071fe"><path d="M 43 23 L 58 23 L 58 34 L 43 34 Z M 43 23 " clip-rule="nonzero"/></clipPath><clipPath id="acf2cc3773"><path d="M 9.515625 -8.339844 L 86.421875 22.597656 L 71.230469 60.363281 L -5.675781 29.425781 Z M 9.515625 -8.339844 " clip-rule="nonzero"/></clipPath><clipPath id="1c55eac89b"><path d="M 9.515625 -8.339844 L 86.421875 22.597656 L 71.230469 60.363281 L -5.675781 29.425781 Z M 9.515625 -8.339844 " clip-rule="nonzero"/></clipPath><clipPath id="66a4a5ee43"><path d="M 9.515625 -8.339844 L 86.421875 22.597656 L 71.230469 60.363281 L -5.675781 29.425781 Z M 9.515625 -8.339844 " clip-rule="nonzero"/></clipPath><clipPath id="7784ea423e"><path d="M 3 25 L 18 25 L 18 33 L 3 33 Z M 3 25 " clip-rule="nonzero"/></clipPath><clipPath id="9548ecec42"><path d="M 9.515625 -8.339844 L 86.421875 22.597656 L 71.230469 60.363281 L -5.675781 29.425781 Z M 9.515625 -8.339844 " clip-rule="nonzero"/></clipPath><clipPath id="a86fb37e9d"><path d="M 9.515625 -8.339844 L 86.421875 22.597656 L 71.230469 60.363281 L -5.675781 29.425781 Z M 9.515625 -8.339844 " clip-rule="nonzero"/></clipPath><clipPath id="b3b841ab7d"><path d="M 9.515625 -8.339844 L 86.421875 22.597656 L 71.230469 60.363281 L -5.675781 29.425781 Z M 9.515625 -8.339844 " clip-rule="nonzero"/></clipPath><clipPath id="0b5f8af01a"><path d="M 48 25 L 81 25 L 81 44 L 48 44 Z M 48 25 " clip-rule="nonzero"/></clipPath><clipPath id="88c8bfc922"><path d="M 9.515625 -8.339844 L 86.421875 22.597656 L 71.230469 60.363281 L -5.675781 29.425781 Z M 9.515625 -8.339844 " clip-rule="nonzero"/></clipPath><clipPath id="eaee10a55c"><path d="M 9.515625 -8.339844 L 86.421875 22.597656 L 71.230469 60.363281 L -5.675781 29.425781 Z M 9.515625 -8.339844 " clip-rule="nonzero"/></clipPath><clipPath id="894d6c302e"><path d="M 9.515625 -8.339844 L 86.421875 22.597656 L 71.230469 60.363281 L -5.675781 29.425781 Z M 9.515625 -8.339844 " clip-rule="nonzero"/></clipPath><clipPath id="a241c3793d"><path d="M 51 46 L 66 46 L 66 54 L 51 54 Z M 51 46 " clip-rule="nonzero"/></clipPath><clipPath id="4763fef5d1"><path d="M 9.515625 -8.339844 L 86.421875 22.597656 L 71.230469 60.363281 L -5.675781 29.425781 Z M 9.515625 -8.339844 " clip-rule="nonzero"/></clipPath><clipPath id="f306c3858e"><path d="M 9.515625 -8.339844 L 86.421875 22.597656 L 71.230469 60.363281 L -5.675781 29.425781 Z M 9.515625 -8.339844 " clip-rule="nonzero"/></clipPath><clipPath id="dad6b86f01"><path d="M 9.515625 -8.339844 L 86.421875 22.597656 L 71.230469 60.363281 L -5.675781 29.425781 Z M 9.515625 -8.339844 " clip-rule="nonzero"/></clipPath><clipPath id="0c87aec2e1"><path d="M 4 0 L 24 0 L 24 33 L 4 33 Z M 4 0 " clip-rule="nonzero"/></clipPath><clipPath id="3b8fe5b12b"><path d="M 9.515625 -8.339844 L 86.421875 22.597656 L 71.230469 60.363281 L -5.675781 29.425781 Z M 9.515625 -8.339844 " clip-rule="nonzero"/></clipPath><clipPath id="2b3dcb2a5a"><path d="M 9.515625 -8.339844 L 86.421875 22.597656 L 71.230469 60.363281 L -5.675781 29.425781 Z M 9.515625 -8.339844 " clip-rule="nonzero"/></clipPath><clipPath id="2e3637d14b"><path d="M 9.515625 -8.339844 L 86.421875 22.597656 L 71.230469 60.363281 L -5.675781 29.425781 Z M 9.515625 -8.339844 " clip-rule="nonzero"/></clipPath><clipPath id="6cd4688bf7"><path d="M 24 12 L 32 12 L 32 29 L 24 29 Z M 24 12 " clip-rule="nonzero"/></clipPath><clipPath id="d1172d86ff"><path d="M 9.515625 -8.339844 L 86.421875 22.597656 L 71.230469 60.363281 L -5.675781 29.425781 Z M 9.515625 -8.339844 " clip-rule="nonzero"/></clipPath><clipPath id="2fdbdfea15"><path d="M 9.515625 -8.339844 L 86.421875 22.597656 L 71.230469 60.363281 L -5.675781 29.425781 Z M 9.515625 -8.339844 " clip-rule="nonzero"/></clipPath><clipPath id="284480f62b"><path d="M 9.515625 -8.339844 L 86.421875 22.597656 L 71.230469 60.363281 L -5.675781 29.425781 Z M 9.515625 -8.339844 " clip-rule="nonzero"/></clipPath><clipPath id="5892724977"><path d="M 34 6 L 53 6 L 53 32 L 34 32 Z M 34 6 " clip-rule="nonzero"/></clipPath><clipPath id="f613813141"><path d="M 9.515625 -8.339844 L 86.421875 22.597656 L 71.230469 60.363281 L -5.675781 29.425781 Z M 9.515625 -8.339844 " clip-rule="nonzero"/></clipPath><clipPath id="381f1ddda6"><path d="M 9.515625 -8.339844 L 86.421875 22.597656 L 71.230469 60.363281 L -5.675781 29.425781 Z M 9.515625 -8.339844 " clip-rule="nonzero"/></clipPath><clipPath id="48c1ddda53"><path d="M 9.515625 -8.339844 L 86.421875 22.597656 L 71.230469 60.363281 L -5.675781 29.425781 Z M 9.515625 -8.339844 " clip-rule="nonzero"/></clipPath><clipPath id="c3756cb69d"><path d="M 41 22 L 56 22 L 56 34 L 41 34 Z M 41 22 " clip-rule="nonzero"/></clipPath><clipPath id="def27f9403"><path d="M 9.515625 -8.339844 L 86.421875 22.597656 L 71.230469 60.363281 L -5.675781 29.425781 Z M 9.515625 -8.339844 " clip-rule="nonzero"/></clipPath><clipPath id="aeb42f1df5"><path d="M 9.515625 -8.339844 L 86.421875 22.597656 L 71.230469 60.363281 L -5.675781 29.425781 Z M 9.515625 -8.339844 " clip-rule="nonzero"/></clipPath><clipPath id="1eafa3d266"><path d="M 9.515625 -8.339844 L 86.421875 22.597656 L 71.230469 60.363281 L -5.675781 29.425781 Z M 9.515625 -8.339844 " clip-rule="nonzero"/></clipPath><clipPath id="63fab65bf2"><path d="M 1 25 L 17 25 L 17 32 L 1 32 Z M 1 25 " clip-rule="nonzero"/></clipPath><clipPath id="e03183883d"><path d="M 9.515625 -8.339844 L 86.421875 22.597656 L 71.230469 60.363281 L -5.675781 29.425781 Z M 9.515625 -8.339844 " clip-rule="nonzero"/></clipPath><clipPath id="16b63fea06"><path d="M 9.515625 -8.339844 L 86.421875 22.597656 L 71.230469 60.363281 L -5.675781 29.425781 Z M 9.515625 -8.339844 " clip-rule="nonzero"/></clipPath><clipPath id="eb5fdce6cb"><path d="M 9.515625 -8.339844 L 86.421875 22.597656 L 71.230469 60.363281 L -5.675781 29.425781 Z M 9.515625 -8.339844 " clip-rule="nonzero"/></clipPath><clipPath id="61c85c4f2f"><path d="M 46 25 L 79 25 L 79 43 L 46 43 Z M 46 25 " clip-rule="nonzero"/></clipPath><clipPath id="55218592da"><path d="M 9.515625 -8.339844 L 86.421875 22.597656 L 71.230469 60.363281 L -5.675781 29.425781 Z M 9.515625 -8.339844 " clip-rule="nonzero"/></clipPath><clipPath id="2b301f65f0"><path d="M 9.515625 -8.339844 L 86.421875 22.597656 L 71.230469 60.363281 L -5.675781 29.425781 Z M 9.515625 -8.339844 " clip-rule="nonzero"/></clipPath><clipPath id="d236384129"><path d="M 9.515625 -8.339844 L 86.421875 22.597656 L 71.230469 60.363281 L -5.675781 29.425781 Z M 9.515625 -8.339844 " clip-rule="nonzero"/></clipPath><clipPath id="b5f55c3230"><path d="M 49 45 L 65 45 L 65 53 L 49 53 Z M 49 45 " clip-rule="nonzero"/></clipPath><clipPath id="3a679050c8"><path d="M 9.515625 -8.339844 L 86.421875 22.597656 L 71.230469 60.363281 L -5.675781 29.425781 Z M 9.515625 -8.339844 " clip-rule="nonzero"/></clipPath><clipPath id="5b6599d36c"><path d="M 9.515625 -8.339844 L 86.421875 22.597656 L 71.230469 60.363281 L -5.675781 29.425781 Z M 9.515625 -8.339844 " clip-rule="nonzero"/></clipPath><clipPath id="d251542212"><path d="M 9.515625 -8.339844 L 86.421875 22.597656 L 71.230469 60.363281 L -5.675781 29.425781 Z M 9.515625 -8.339844 " clip-rule="nonzero"/></clipPath><clipPath id="f3115083fb"><path d="M 4 0 L 25 0 L 25 33 L 4 33 Z M 4 0 " clip-rule="nonzero"/></clipPath><clipPath id="05d67cb745"><path d="M 9.515625 -8.339844 L 86.421875 22.597656 L 71.230469 60.363281 L -5.675781 29.425781 Z M 9.515625 -8.339844 " clip-rule="nonzero"/></clipPath><clipPath id="3103292995"><path d="M 9.515625 -8.339844 L 86.421875 22.597656 L 71.230469 60.363281 L -5.675781 29.425781 Z M 9.515625 -8.339844 " clip-rule="nonzero"/></clipPath><clipPath id="a6364a2091"><path d="M 9.515625 -8.339844 L 86.421875 22.597656 L 71.230469 60.363281 L -5.675781 29.425781 Z M 9.515625 -8.339844 " clip-rule="nonzero"/></clipPath><clipPath id="de14b19eef"><path d="M 24 12 L 32 12 L 32 29 L 24 29 Z M 24 12 " clip-rule="nonzero"/></clipPath><clipPath id="d8e4b8671d"><path d="M 9.515625 -8.339844 L 86.421875 22.597656 L 71.230469 60.363281 L -5.675781 29.425781 Z M 9.515625 -8.339844 " clip-rule="nonzero"/></clipPath><clipPath id="ec2f84167a"><path d="M 9.515625 -8.339844 L 86.421875 22.597656 L 71.230469 60.363281 L -5.675781 29.425781 Z M 9.515625 -8.339844 " clip-rule="nonzero"/></clipPath><clipPath id="06f819dbe5"><path d="M 9.515625 -8.339844 L 86.421875 22.597656 L 71.230469 60.363281 L -5.675781 29.425781 Z M 9.515625 -8.339844 " clip-rule="nonzero"/></clipPath><clipPath id="5975ddb7d2"><path d="M 33 5 L 54 5 L 54 32 L 33 32 Z M 33 5 " clip-rule="nonzero"/></clipPath><clipPath id="7333808985"><path d="M 9.515625 -8.339844 L 86.421875 22.597656 L 71.230469 60.363281 L -5.675781 29.425781 Z M 9.515625 -8.339844 " clip-rule="nonzero"/></clipPath><clipPath id="116e56b505"><path d="M 9.515625 -8.339844 L 86.421875 22.597656 L 71.230469 60.363281 L -5.675781 29.425781 Z M 9.515625 -8.339844 " clip-rule="nonzero"/></clipPath><clipPath id="966d834a65"><path d="M 9.515625 -8.339844 L 86.421875 22.597656 L 71.230469 60.363281 L -5.675781 29.425781 Z M 9.515625 -8.339844 " clip-rule="nonzero"/></clipPath><clipPath id="ce38f6c78f"><path d="M 41 22 L 57 22 L 57 35 L 41 35 Z M 41 22 " clip-rule="nonzero"/></clipPath><clipPath id="0645c8c9d6"><path d="M 9.515625 -8.339844 L 86.421875 22.597656 L 71.230469 60.363281 L -5.675781 29.425781 Z M 9.515625 -8.339844 " clip-rule="nonzero"/></clipPath><clipPath id="5f20368d9a"><path d="M 9.515625 -8.339844 L 86.421875 22.597656 L 71.230469 60.363281 L -5.675781 29.425781 Z M 9.515625 -8.339844 " clip-rule="nonzero"/></clipPath><clipPath id="1430d0da7a"><path d="M 9.515625 -8.339844 L 86.421875 22.597656 L 71.230469 60.363281 L -5.675781 29.425781 Z M 9.515625 -8.339844 " clip-rule="nonzero"/></clipPath><clipPath id="b903ec4218"><path d="M 1 24 L 17 24 L 17 33 L 1 33 Z M 1 24 " clip-rule="nonzero"/></clipPath><clipPath id="f140d04772"><path d="M 9.515625 -8.339844 L 86.421875 22.597656 L 71.230469 60.363281 L -5.675781 29.425781 Z M 9.515625 -8.339844 " clip-rule="nonzero"/></clipPath><clipPath id="780bfdf316"><path d="M 9.515625 -8.339844 L 86.421875 22.597656 L 71.230469 60.363281 L -5.675781 29.425781 Z M 9.515625 -8.339844 " clip-rule="nonzero"/></clipPath><clipPath id="d8d9ddc4c3"><path d="M 9.515625 -8.339844 L 86.421875 22.597656 L 71.230469 60.363281 L -5.675781 29.425781 Z M 9.515625 -8.339844 " clip-rule="nonzero"/></clipPath><clipPath id="23bd399ed4"><path d="M 46 25 L 80 25 L 80 44 L 46 44 Z M 46 25 " clip-rule="nonzero"/></clipPath><clipPath id="6af8cf2036"><path d="M 9.515625 -8.339844 L 86.421875 22.597656 L 71.230469 60.363281 L -5.675781 29.425781 Z M 9.515625 -8.339844 " clip-rule="nonzero"/></clipPath><clipPath id="4243b0e017"><path d="M 9.515625 -8.339844 L 86.421875 22.597656 L 71.230469 60.363281 L -5.675781 29.425781 Z M 9.515625 -8.339844 " clip-rule="nonzero"/></clipPath><clipPath id="da7f1fc24e"><path d="M 9.515625 -8.339844 L 86.421875 22.597656 L 71.230469 60.363281 L -5.675781 29.425781 Z M 9.515625 -8.339844 " clip-rule="nonzero"/></clipPath><clipPath id="695452d6a2"><path d="M 48 45 L 65 45 L 65 54 L 48 54 Z M 48 45 " clip-rule="nonzero"/></clipPath><clipPath id="bbbeb8cbe9"><path d="M 9.515625 -8.339844 L 86.421875 22.597656 L 71.230469 60.363281 L -5.675781 29.425781 Z M 9.515625 -8.339844 " clip-rule="nonzero"/></clipPath><clipPath id="e901aa179d"><path d="M 9.515625 -8.339844 L 86.421875 22.597656 L 71.230469 60.363281 L -5.675781 29.425781 Z M 9.515625 -8.339844 " clip-rule="nonzero"/></clipPath><clipPath id="4d453b599d"><path d="M 9.515625 -8.339844 L 86.421875 22.597656 L 71.230469 60.363281 L -5.675781 29.425781 Z M 9.515625 -8.339844 " clip-rule="nonzero"/></clipPath></defs><g clip-path="url(#f2bb45f176)"><g clip-path="url(#cb069ad2df)"><g clip-path="url(#f1e1901473)"><g clip-path="url(#8f2bb7784c)"><path fill="#000000" d="M 21.691406 32.613281 L 6.292969 5.644531 C 6.25 5.570312 6.285156 5.472656 6.363281 5.441406 L 17.023438 1.113281 C 17.105469 1.082031 17.195312 1.125 17.214844 1.207031 L 25.441406 30.71875 C 25.457031 30.785156 25.429688 30.851562 25.367188 30.882812 L 21.878906 32.667969 C 21.8125 32.703125 21.726562 32.679688 21.691406 32.613281 Z M 21.691406 32.613281 " fill-opacity="1" fill-rule="nonzero"/></g></g></g></g><g clip-path="url(#e756e6fb82)"><g clip-path="url(#f0a2cb6f10)"><g clip-path="url(#e6fe0773c3)"><g clip-path="url(#0dd3eb47c5)"><path fill="#000000" d="M 32.078125 27.789062 L 26.3125 14.828125 C 26.277344 14.746094 26.324219 14.652344 26.414062 14.632812 L 32.835938 13.226562 C 32.925781 13.207031 33.011719 13.28125 33.007812 13.371094 L 32.351562 27.738281 C 32.34375 27.890625 32.140625 27.925781 32.078125 27.789062 Z M 32.078125 27.789062 " fill-opacity="1" fill-rule="nonzero"/></g></g></g></g><g clip-path="url(#daf2e3c7e3)"><g clip-path="url(#4f765c092f)"><g clip-path="url(#a4fa102c33)"><g clip-path="url(#4c6631d714)"><path fill="#000000" d="M 39.289062 31.628906 L 54.296875 12.371094 C 54.347656 12.308594 54.335938 12.214844 54.269531 12.167969 L 46.164062 6.4375 C 46.089844 6.386719 45.988281 6.414062 45.949219 6.496094 L 35.855469 29.25 C 35.828125 29.3125 35.847656 29.382812 35.90625 29.421875 L 39.097656 31.660156 C 39.160156 31.703125 39.242188 31.6875 39.289062 31.628906 Z M 39.289062 31.628906 " fill-opacity="1" fill-rule="nonzero"/></g></g></g></g><g clip-path="url(#bf97a071fe)"><g clip-path="url(#acf2cc3773)"><g clip-path="url(#1c55eac89b)"><g clip-path="url(#66a4a5ee43)"><path fill="#000000" d="M 43.8125 33.746094 L 57.25 29.230469 C 57.335938 29.203125 57.371094 29.101562 57.328125 29.023438 L 54.019531 23.339844 C 53.96875 23.257812 53.859375 23.242188 53.792969 23.308594 L 43.664062 33.511719 C 43.558594 33.617188 43.667969 33.792969 43.8125 33.746094 Z M 43.8125 33.746094 " fill-opacity="1" fill-rule="nonzero"/></g></g></g></g><g clip-path="url(#7784ea423e)"><g clip-path="url(#9548ecec42)"><g clip-path="url(#a86fb37e9d)"><g clip-path="url(#b3b841ab7d)"><path fill="#000000" d="M 17.710938 31.8125 L 5.109375 25.449219 C 5.027344 25.410156 4.929688 25.453125 4.90625 25.542969 L 3.238281 31.953125 C 3.214844 32.042969 3.285156 32.132812 3.378906 32.132812 L 17.644531 32.082031 C 17.796875 32.082031 17.84375 31.878906 17.710938 31.8125 Z M 17.710938 31.8125 " fill-opacity="1" fill-rule="nonzero"/></g></g></g></g><g clip-path="url(#0b5f8af01a)"><g clip-path="url(#88c8bfc922)"><g clip-path="url(#eaee10a55c)"><g clip-path="url(#894d6c302e)"><path fill="#000000" d="M 49.269531 43.125 L 80.414062 37.199219 C 80.492188 37.1875 80.542969 37.113281 80.527344 37.035156 L 78.449219 25.867188 C 78.433594 25.777344 78.335938 25.726562 78.253906 25.761719 L 48.207031 39.058594 C 48.144531 39.085938 48.109375 39.15625 48.128906 39.222656 L 49.105469 43.019531 C 49.125 43.09375 49.195312 43.140625 49.269531 43.125 Z M 49.269531 43.125 " fill-opacity="1" fill-rule="nonzero"/></g></g></g></g><g clip-path="url(#a241c3793d)"><g clip-path="url(#4763fef5d1)"><g clip-path="url(#f306c3858e)"><g clip-path="url(#dad6b86f01)"><path fill="#000000" d="M 51.324219 47.699219 L 64.398438 53.015625 C 64.480469 53.050781 64.574219 53 64.589844 52.910156 L 65.742188 46.390625 C 65.761719 46.296875 65.683594 46.214844 65.589844 46.222656 L 51.363281 47.425781 C 51.214844 47.4375 51.183594 47.640625 51.324219 47.699219 Z M 51.324219 47.699219 " fill-opacity="1" fill-rule="nonzero"/></g></g></g></g><g clip-path="url(#0c87aec2e1)"><g clip-path="url(#3b8fe5b12b)"><g clip-path="url(#2b3dcb2a5a)"><g clip-path="url(#2e3637d14b)"><path fill="#fedf57" d="M 20.054688 32.480469 L 4.511719 5.25 L 15.46875 0.800781 L 23.769531 30.578125 Z M 20.054688 32.480469 " fill-opacity="1" fill-rule="nonzero"/></g></g></g></g><g clip-path="url(#6cd4688bf7)"><g clip-path="url(#d1172d86ff)"><g clip-path="url(#2fdbdfea15)"><g clip-path="url(#284480f62b)"><path fill="#fedf57" d="M 30.621094 28.089844 L 24.539062 14.417969 L 31.3125 12.9375 Z M 30.621094 28.089844 " fill-opacity="1" fill-rule="nonzero"/></g></g></g></g><g clip-path="url(#5892724977)"><g clip-path="url(#f613813141)"><g clip-path="url(#381f1ddda6)"><g clip-path="url(#48c1ddda53)"><path fill="#fedf57" d="M 37.503906 31.484375 L 52.6875 12.003906 L 44.320312 6.085938 L 34.105469 29.105469 Z M 37.503906 31.484375 " fill-opacity="1" fill-rule="nonzero"/></g></g></g></g><g clip-path="url(#c3756cb69d)"><g clip-path="url(#def27f9403)"><g clip-path="url(#aeb42f1df5)"><g clip-path="url(#1eafa3d266)"><path fill="#fedf57" d="M 41.535156 33.6875 L 55.710938 28.921875 L 52.21875 22.925781 Z M 41.535156 33.6875 " fill-opacity="1" fill-rule="nonzero"/></g></g></g></g><g clip-path="url(#63fab65bf2)"><g clip-path="url(#e03183883d)"><g clip-path="url(#16b63fea06)"><g clip-path="url(#eb5fdce6cb)"><path fill="#fedf57" d="M 16.535156 31.828125 L 3.246094 25.121094 L 1.488281 31.878906 Z M 16.535156 31.828125 " fill-opacity="1" fill-rule="nonzero"/></g></g></g></g><g clip-path="url(#61c85c4f2f)"><g clip-path="url(#55218592da)"><g clip-path="url(#2b301f65f0)"><g clip-path="url(#d236384129)"><path fill="#fedf57" d="M 47.433594 42.902344 L 78.851562 36.921875 L 76.714844 25.4375 L 46.394531 38.855469 Z M 47.433594 42.902344 " fill-opacity="1" fill-rule="nonzero"/></g></g></g></g><g clip-path="url(#b5f55c3230)"><g clip-path="url(#3a679050c8)"><g clip-path="url(#5b6599d36c)"><g clip-path="url(#d251542212)"><path fill="#fedf57" d="M 49.070312 47.222656 L 62.859375 52.832031 L 64.074219 45.957031 Z M 49.070312 47.222656 " fill-opacity="1" fill-rule="nonzero"/></g></g></g></g><g clip-path="url(#f3115083fb)"><g clip-path="url(#05d67cb745)"><g clip-path="url(#3103292995)"><g clip-path="url(#a6364a2091)"><path stroke-linecap="round" transform="matrix(0.0257756, 0.0103685, -0.0103402, 0.0257053, 9.553387, -8.307855)" fill="none" stroke-linejoin="round" d="M 898.565121 1224.321971 L 13.761896 521.883473 L 319.884657 225.31984 L 997.061178 1110.586601 Z M 898.565121 1224.321971 " stroke="#000000" stroke-width="27.459999" stroke-opacity="1" stroke-miterlimit="4"/></g></g></g></g><g clip-path="url(#de14b19eef)"><g clip-path="url(#d8e4b8671d)"><g clip-path="url(#ec2f84167a)"><g clip-path="url(#06f819dbe5)"><path stroke-linecap="round" transform="matrix(0.0257756, 0.0103685, -0.0103402, 0.0257053, 9.553387, -8.307855)" fill="none" stroke-linejoin="round" d="M 1192.43083 934.981794 L 805.684208 559.110047 L 1011.982639 418.303427 Z M 1192.43083 934.981794 " stroke="#000000" stroke-width="27.459999" stroke-opacity="1" stroke-miterlimit="4"/></g></g></g></g><g clip-path="url(#5975ddb7d2)"><g clip-path="url(#7333808985)"><g clip-path="url(#116e56b505)"><g clip-path="url(#966d834a65)"><path stroke-linecap="round" transform="matrix(0.0257756, 0.0103685, -0.0103402, 0.0257053, 9.553387, -8.307855)" fill="none" stroke-linejoin="round" d="M 1467.865833 955.937893 L 1713.216312 99.134183 L 1354.317168 13.676207 L 1322.426938 922.056825 Z M 1467.865833 955.937893 " stroke="#000000" stroke-width="27.459999" stroke-opacity="1" stroke-miterlimit="4"/></g></g></g></g><g clip-path="url(#ce38f6c78f)"><g clip-path="url(#0645c8c9d6)"><g clip-path="url(#5f20368d9a)"><g clip-path="url(#1430d0da7a)"><path stroke-linecap="round" transform="matrix(0.0257756, 0.0103685, -0.0103402, 0.0257053, 9.553387, -8.307855)" fill="none" stroke-linejoin="round" d="M 1632.074995 975.409443 L 2041.431138 624.896525 L 1844.273202 471.159243 Z M 1632.074995 975.409443 " stroke="#000000" stroke-width="27.459999" stroke-opacity="1" stroke-miterlimit="4"/></g></g></g></g><g clip-path="url(#b903ec4218)"><g clip-path="url(#f140d04772)"><g clip-path="url(#780bfdf316)"><g clip-path="url(#d8d9ddc4c3)"><path stroke-linecap="round" transform="matrix(0.0257756, 0.0103685, -0.0103402, 0.0257053, 9.553387, -8.307855)" fill="none" stroke-linejoin="round" d="M 772.274876 1249.88469 L 238.420595 1204.300238 L 270.497448 1454.257507 Z M 772.274876 1249.88469 " stroke="#000000" stroke-width="27.459999" stroke-opacity="1" stroke-miterlimit="4"/></g></g></g></g><g clip-path="url(#23bd399ed4)"><g clip-path="url(#6af8cf2036)"><g clip-path="url(#4243b0e017)"><g clip-path="url(#da7f1fc24e)"><path stroke-linecap="round" transform="matrix(0.0257756, 0.0103685, -0.0103402, 0.0257053, 9.553387, -8.307855)" fill="none" stroke-linejoin="round" d="M 1952.821093 1204.513543 L 2921.626169 581.080445 L 2696.009117 225.314582 L 1863.763433 1083.002343 Z M 1952.821093 1204.513543 " stroke="#000000" stroke-width="27.459999" stroke-opacity="1" stroke-miterlimit="4"/></g></g></g></g><g clip-path="url(#695452d6a2)"><g clip-path="url(#bbbeb8cbe9)"><g clip-path="url(#e901aa179d)"><g clip-path="url(#4d453b599d)"><path stroke-linecap="round" transform="matrix(0.0257756, 0.0103685, -0.0103402, 0.0257053, 9.553387, -8.307855)" fill="none" stroke-linejoin="round" d="M 2065.509252 1327.130532 L 2601.315565 1329.226037 L 2549.533243 1082.658293 Z M 2065.509252 1327.130532 " stroke="#000000" stroke-width="27.459999" stroke-opacity="1" stroke-miterlimit="4"/></g></g></g></g><g fill="#000000" fill-opacity="1"><g transform="translate(40.185702, 29.037823)"><g><path d="M 0.34375 -0.234375 L 0.34375 -0.203125 C 0.332031 -0.140625 0.3125 -0.0664062 0.28125 0.015625 C 0.25 0.0976562 0.21875 0.175781 0.1875 0.25 L 0.0625 0.25 C 0.0820312 0.1875 0.101562 0.101562 0.125 0 C 0.144531 -0.09375 0.15625 -0.171875 0.15625 -0.234375 Z M 0.34375 -0.234375 "/></g></g></g></svg>