<svg xmlns="http://www.w3.org/2000/svg" width="100%" viewBox="0 0 24 24" fill="none"><path d="M18.93 5.64C17.66 5.06 16.29 4.62 14.86 4.38C14.83 4.38 14.81 4.38 14.79 4.41C14.61 4.72 14.42 5.13 14.28 5.45C12.74 5.22 11.21 5.22 9.71 5.45C9.57 5.12 9.37 4.72 9.2 4.41C9.19 4.39 9.16 4.38 9.13 4.38C7.7 4.63 6.33 5.06 5.06 5.64C5.05 5.64 5.04 5.65 5.03 5.66C2.44 9.53 1.73 13.31 2.08 17.04C2.08 17.06 2.09 17.08 2.11 17.09C3.82 18.35 5.48 19.11 7.1 19.61C7.13 19.61 7.15 19.61 7.17 19.59C7.55 19.06 7.9 18.51 8.19 17.93C8.21 17.9 8.19 17.86 8.16 17.84C7.62 17.63 7.1 17.38 6.6 17.1C6.56 17.08 6.56 17.02 6.6 16.99C6.7 16.91 6.81 16.83 6.91 16.75C6.93 16.73 6.95 16.73 6.97 16.75C10.24 18.24 13.79 18.24 17.02 16.75C17.04 16.74 17.07 16.75 17.09 16.75C17.19 16.83 17.29 16.92 17.4 16.99C17.44 17.02 17.43 17.07 17.4 17.1C16.9 17.39 16.38 17.64 15.84 17.84C15.8 17.85 15.79 17.89 15.81 17.93C16.11 18.51 16.45 19.07 16.83 19.59C16.85 19.61 16.87 19.62 16.9 19.61C18.53 19.1 20.19 18.34 21.9 17.09C21.91 17.08 21.92 17.06 21.93 17.04C22.35 12.73 21.23 8.98 18.97 5.66C18.97 5.65 18.96 5.64 18.94 5.64H18.93ZM8.68 14.78C7.69 14.78 6.88 13.88 6.88 12.76C6.88 11.64 7.68 10.74 8.68 10.74C9.68 10.74 10.49 11.65 10.48 12.76C10.48 13.87 9.68 14.78 8.68 14.78ZM15.33 14.78C14.34 14.78 13.53 13.88 13.53 12.76C13.53 11.64 14.33 10.74 15.33 10.74C16.33 10.74 17.14 11.65 17.13 12.76C17.13 13.87 16.34 14.78 15.33 14.78Z" fill="currentColor"></path></svg>