<svg xmlns="http://www.w3.org/2000/svg" width="100%" viewBox="0 0 24 24" fill="none"><path d="M21.94 7.88C21.9206 7.0503 21.7652 6.2294 21.48 5.45C21.2283 4.78181 20.8322 4.17742 20.32 3.68C19.8226 3.16776 19.2182 2.77166 18.55 2.52C17.7706 2.23484 16.9497 2.07945 16.12 2.06C15.06 2 14.72 2 12 2C9.28 2 8.94 2 7.88 2.06C7.0503 2.07945 6.2294 2.23484 5.45 2.52C4.78181 2.77166 4.17742 3.16776 3.68 3.68C3.16743 4.17518 2.77418 4.78044 2.53 5.45C2.23616 6.22734 2.07721 7.04915 2.06 7.88C2 8.94 2 9.28 2 12C2 14.72 2 15.06 2.06 16.12C2.07721 16.9508 2.23616 17.7727 2.53 18.55C2.77418 19.2196 3.16743 19.8248 3.68 20.32C4.17742 20.8322 4.78181 21.2283 5.45 21.48C6.2294 21.7652 7.0503 21.9206 7.88 21.94C8.94 22 9.28 22 12 22C14.72 22 15.06 22 16.12 21.94C16.9497 21.9206 17.7706 21.7652 18.55 21.48C19.2134 21.219 19.816 20.8242 20.3201 20.3201C20.8242 19.816 21.219 19.2134 21.48 18.55C21.7652 17.7706 21.9206 16.9497 21.94 16.12C21.94 15.06 22 14.72 22 12C22 9.28 22 8.94 21.94 7.88ZM20.14 16C20.1327 16.6348 20.0178 17.2637 19.8 17.86C19.6327 18.2913 19.3773 18.683 19.0501 19.0101C18.723 19.3373 18.3313 19.5927 17.9 19.76C17.3037 19.9778 16.6748 20.0927 16.04 20.1C15.04 20.15 14.67 20.16 12.04 20.16C9.41 20.16 9.04 20.16 8.04 20.1C7.38073 20.1148 6.72401 20.0132 6.1 19.8C5.66869 19.6327 5.27698 19.3773 4.94985 19.0501C4.62272 18.723 4.36734 18.3313 4.2 17.9C3.97775 17.2911 3.86271 16.6482 3.86 16C3.86 15 3.8 14.63 3.8 12C3.8 9.37 3.8 9 3.86 8C3.86271 7.35178 3.97775 6.70893 4.2 6.1C4.36734 5.66869 4.62272 5.27698 4.94985 4.94985C5.27698 4.62272 5.66869 4.36734 6.1 4.2C6.70893 3.97775 7.35178 3.86271 8 3.86C9 3.86 9.37 3.8 12 3.8C14.63 3.8 15 3.8 16 3.86C16.6348 3.86728 17.2637 3.98225 17.86 4.2C18.2913 4.36734 18.683 4.62272 19.0101 4.94985C19.3373 5.27698 19.5927 5.66869 19.76 6.1C19.9959 6.7065 20.1245 7.34942 20.14 8C20.19 9 20.2 9.37 20.2 12C20.2 14.63 20.19 15 20.14 16Z" fill="currentColor"></path><path d="M12 6.86C10.9834 6.86 9.98964 7.16146 9.14437 7.72625C8.2991 8.29104 7.64029 9.0938 7.25126 10.033C6.86222 10.9722 6.76044 12.0057 6.95876 13.0028C7.15709 13.9998 7.64663 14.9157 8.36547 15.6345C9.08431 16.3534 10.0002 16.8429 10.9972 17.0412C11.9943 17.2396 13.0278 17.1378 13.967 16.7487C14.9062 16.3597 15.709 15.7009 16.2738 14.8556C16.8385 14.0104 17.14 13.0166 17.14 12C17.14 10.6368 16.5985 9.32941 15.6345 8.36547C14.6706 7.40153 13.3632 6.86 12 6.86ZM12 15.33C11.3414 15.33 10.6976 15.1347 10.15 14.7688C9.60234 14.4029 9.17552 13.8828 8.92348 13.2743C8.67144 12.6659 8.6055 11.9963 8.73399 11.3503C8.86247 10.7044 9.17963 10.111 9.64533 9.64533C10.111 9.17963 10.7044 8.86247 11.3503 8.73399C11.9963 8.6055 12.6659 8.67144 13.2743 8.92348C13.8828 9.17552 14.4029 9.60234 14.7688 10.15C15.1347 10.6976 15.33 11.3414 15.33 12C15.33 12.4373 15.2439 12.8703 15.0765 13.2743C14.9092 13.6784 14.6639 14.0454 14.3547 14.3547C14.0454 14.6639 13.6784 14.9092 13.2743 15.0765C12.8703 15.2439 12.4373 15.33 12 15.33Z" fill="currentColor"></path><path d="M17.34 5.46001C17.1027 5.46001 16.8707 5.53039 16.6733 5.66224C16.476 5.7941 16.3222 5.98152 16.2313 6.20079C16.1405 6.42006 16.1168 6.66134 16.1631 6.89411C16.2094 7.12689 16.3236 7.34071 16.4915 7.50853C16.6593 7.67636 16.8731 7.79065 17.1059 7.83695C17.3387 7.88325 17.5799 7.85949 17.7992 7.76866C18.0185 7.67784 18.2059 7.52403 18.3378 7.32669C18.4696 7.12935 18.54 6.89734 18.54 6.66001C18.54 6.34175 18.4136 6.03652 18.1885 5.81148C17.9635 5.58643 17.6583 5.46001 17.34 5.46001Z" fill="currentColor"></path></svg>