<svg xmlns="http://www.w3.org/2000/svg" width="100%" viewBox="0 0 24 24" fill="none" class="icon"><path d="M22.062 6.92699C21.9402 6.49091 21.708 6.09363 21.3878 5.77357C21.0675 5.45351 20.6701 5.2215 20.234 5.09999C18.597 4.66099 12.01 4.66099 12.01 4.66099C12.01 4.66099 5.43899 4.65199 3.78499 5.09999C3.34884 5.2215 2.95143 5.45351 2.63119 5.77357C2.31096 6.09363 2.07873 6.49091 1.95699 6.92699C1.64646 8.60303 1.49346 10.3044 1.49999 12.009C1.49417 13.7068 1.64683 15.4015 1.95599 17.071C2.07752 17.5076 2.30976 17.9053 2.6302 18.2258C2.95064 18.5462 3.34842 18.7785 3.78499 18.9C5.41999 19.34 12.01 19.34 12.01 19.34C12.01 19.34 18.58 19.34 20.234 18.9C20.6701 18.7785 21.0675 18.5465 21.3878 18.2264C21.708 17.9064 21.9402 17.5091 22.062 17.073C22.3647 15.4029 22.5113 13.7083 22.5 12.011C22.5124 10.3064 22.3658 8.60435 22.062 6.92699ZM9.90699 15.152V8.85199L15.39 12.005L9.90699 15.152Z" fill="currentColor"></path></svg>