<svg xmlns="http://www.w3.org/2000/svg" xmlns:xlink="http://www.w3.org/1999/xlink" width="60" zoomAndPan="magnify" viewBox="0 0 45 44.999999" height="60" preserveAspectRatio="xMidYMid meet" version="1.0"><defs><clipPath id="faeaf47f7d"><path d="M 0 0 L 44.988281 0 L 44.988281 44.988281 L 0 44.988281 Z M 0 0 " clip-rule="nonzero"/></clipPath><clipPath id="1c2e642c01"><path d="M 22.496094 0 C 10.070312 0 0 10.070312 0 22.496094 C 0 34.917969 10.070312 44.988281 22.496094 44.988281 C 34.917969 44.988281 44.988281 34.917969 44.988281 22.496094 C 44.988281 10.070312 34.917969 0 22.496094 0 Z M 22.496094 0 " clip-rule="nonzero"/></clipPath><clipPath id="f2dc153b5d"><path d="M 0 0 L 44.988281 0 L 44.988281 44.988281 L 0 44.988281 Z M 0 0 " clip-rule="nonzero"/></clipPath><clipPath id="57b280e67c"><path d="M 22.496094 0 C 10.070312 0 0 10.070312 0 22.496094 C 0 34.917969 10.070312 44.988281 22.496094 44.988281 C 34.917969 44.988281 44.988281 34.917969 44.988281 22.496094 C 44.988281 10.070312 34.917969 0 22.496094 0 Z M 22.496094 0 " clip-rule="nonzero"/></clipPath><clipPath id="03a1206e95"><rect x="0" width="45" y="0" height="45"/></clipPath><clipPath id="d10f2f4540"><path d="M 0 0 L 44.988281 0 L 44.988281 44.988281 L 0 44.988281 Z M 0 0 " clip-rule="nonzero"/></clipPath><clipPath id="1cdefb6d34"><path d="M 22.492188 0 C 10.070312 0 0 10.070312 0 22.492188 C 0 34.917969 10.070312 44.988281 22.492188 44.988281 C 34.917969 44.988281 44.988281 34.917969 44.988281 22.492188 C 44.988281 10.070312 34.917969 0 22.492188 0 Z M 22.492188 0 " clip-rule="nonzero"/></clipPath><clipPath id="3149379c42"><path d="M 8.359375 22 L 36.859375 22 L 36.859375 24 L 8.359375 24 Z M 8.359375 22 " clip-rule="nonzero"/></clipPath><clipPath id="f7fc9c873a"><path d="M 21 8.945312 L 24 8.945312 L 24 37.445312 L 21 37.445312 Z M 21 8.945312 " clip-rule="nonzero"/></clipPath></defs><g clip-path="url(#faeaf47f7d)"><g clip-path="url(#1c2e642c01)"><g transform="matrix(1, 0, 0, 1, 0, 0)"><g clip-path="url(#03a1206e95)"><g clip-path="url(#f2dc153b5d)"><g clip-path="url(#57b280e67c)"><path fill="#ffffff" d="M 0 0 L 44.988281 0 L 44.988281 44.988281 L 0 44.988281 Z M 0 0 " fill-opacity="1" fill-rule="nonzero"/></g></g></g></g></g></g><g clip-path="url(#d10f2f4540)"><g clip-path="url(#1cdefb6d34)"><path stroke-linecap="butt" transform="matrix(0.75, 0, 0, 0.75, 0.0000005, -0.000000000000015987)" fill="none" stroke-linejoin="miter" d="M 29.989585 0.000000000000021316 C 13.427084 0.000000000000021316 -0.000000666667 13.427084 -0.000000666667 29.989585 C -0.000000666667 46.557295 13.427084 59.984379 29.989585 59.984379 C 46.557294 59.984379 59.984378 46.557295 59.984378 29.989585 C 59.984378 13.427084 46.557294 0.000000000000021316 29.989585 0.000000000000021316 Z M 29.989585 0.000000000000021316 " stroke="#000000" stroke-width="4" stroke-opacity="1" stroke-miterlimit="4"/></g></g><g clip-path="url(#3149379c42)"><path fill="#000000" d="M 36.148438 23.90625 L 9.070312 23.90625 C 8.679688 23.90625 8.359375 23.589844 8.359375 23.195312 C 8.359375 22.800781 8.679688 22.480469 9.070312 22.480469 L 36.148438 22.480469 C 36.539062 22.480469 36.859375 22.800781 36.859375 23.195312 C 36.859375 23.589844 36.539062 23.90625 36.148438 23.90625 Z M 36.148438 23.90625 " fill-opacity="1" fill-rule="nonzero"/></g><g clip-path="url(#f7fc9c873a)"><path fill="#000000" d="M 22.609375 37.445312 C 22.214844 37.445312 21.898438 37.125 21.898438 36.730469 L 21.898438 9.65625 C 21.898438 9.265625 22.214844 8.945312 22.609375 8.945312 C 23.003906 8.945312 23.320312 9.265625 23.320312 9.65625 L 23.320312 36.730469 C 23.320312 37.125 23.003906 37.445312 22.609375 37.445312 Z M 22.609375 37.445312 " fill-opacity="1" fill-rule="nonzero"/></g></svg>