<svg xmlns="http://www.w3.org/2000/svg" xmlns:xlink="http://www.w3.org/1999/xlink" width="300" zoomAndPan="magnify" viewBox="0 0 224.87999 74.999997" height="100" preserveAspectRatio="xMidYMid meet" version="1.0"><defs><g/><clipPath id="035ee18062"><path d="M 0.121094 4 L 2 4 L 2 6 L 0.121094 6 Z M 0.121094 4 " clip-rule="nonzero"/></clipPath><clipPath id="de75617b57"><rect x="0" width="4" y="0" height="7"/></clipPath><clipPath id="084a4d6843"><path d="M 179 24 L 224.761719 24 L 224.761719 58 L 179 58 Z M 179 24 " clip-rule="nonzero"/></clipPath><clipPath id="927123f466"><path d="M 194 28 L 224.761719 28 L 224.761719 48 L 194 48 Z M 194 28 " clip-rule="nonzero"/></clipPath><clipPath id="b166469c0c"><path d="M 219 35 L 224.761719 35 L 224.761719 39 L 219 39 Z M 219 35 " clip-rule="nonzero"/></clipPath><clipPath id="7103d7eedf"><path d="M 200 14 L 224.761719 14 L 224.761719 26 L 200 26 Z M 200 14 " clip-rule="nonzero"/></clipPath><clipPath id="1e55c2fe18"><path d="M 139 55 L 154 55 L 154 74.980469 L 139 74.980469 Z M 139 55 " clip-rule="nonzero"/></clipPath><clipPath id="3dcc5cb18c"><path d="M 149 67 L 161 67 L 161 74.980469 L 149 74.980469 Z M 149 67 " clip-rule="nonzero"/></clipPath><clipPath id="afb3d8217a"><path d="M 162 59 L 183 59 L 183 74.980469 L 162 74.980469 Z M 162 59 " clip-rule="nonzero"/></clipPath><clipPath id="a726c5f5d4"><path d="M 168 49 L 203 49 L 203 74.980469 L 168 74.980469 Z M 168 49 " clip-rule="nonzero"/></clipPath><clipPath id="5b4d823913"><path d="M 170 43 L 215 43 L 215 74.980469 L 170 74.980469 Z M 170 43 " clip-rule="nonzero"/></clipPath><clipPath id="a70cb23f07"><path d="M 201 68 L 224.761719 68 L 224.761719 74.980469 L 201 74.980469 Z M 201 68 " clip-rule="nonzero"/></clipPath><clipPath id="2b5ba72899"><path d="M 207 65 L 224.761719 65 L 224.761719 74.980469 L 207 74.980469 Z M 207 65 " clip-rule="nonzero"/></clipPath><clipPath id="5664ca412d"><path d="M 178 33 L 224.761719 33 L 224.761719 74.980469 L 178 74.980469 Z M 178 33 " clip-rule="nonzero"/></clipPath><clipPath id="a8601a9516"><path d="M 214 54 L 224.761719 54 L 224.761719 63 L 214 63 Z M 214 54 " clip-rule="nonzero"/></clipPath><clipPath id="80052622e3"><path d="M 78 56 L 90 56 L 90 74.980469 L 78 74.980469 Z M 78 56 " clip-rule="nonzero"/></clipPath><clipPath id="8639f6ec62"><path d="M 85 72 L 91 72 L 91 74.980469 L 85 74.980469 Z M 85 72 " clip-rule="nonzero"/></clipPath><clipPath id="a893b60e37"><path d="M 103 73 L 106 73 L 106 74.980469 L 103 74.980469 Z M 103 73 " clip-rule="nonzero"/></clipPath><clipPath id="53f948bea7"><path d="M 115 68 L 117 68 L 117 74.980469 L 115 74.980469 Z M 115 68 " clip-rule="nonzero"/></clipPath><clipPath id="472a74dce7"><path d="M 121 64 L 125 64 L 125 74.980469 L 121 74.980469 Z M 121 64 " clip-rule="nonzero"/></clipPath><clipPath id="ac17fc7da3"><path d="M 134 61 L 143 61 L 143 74.980469 L 134 74.980469 Z M 134 61 " clip-rule="nonzero"/></clipPath><clipPath id="2ea620c749"><path d="M 0 41 L 40 41 L 40 74.980469 L 0 74.980469 Z M 0 41 " clip-rule="nonzero"/></clipPath><clipPath id="462ba9bc49"><path d="M 0 63 L 26 63 L 26 74.980469 L 0 74.980469 Z M 0 63 " clip-rule="nonzero"/></clipPath><clipPath id="59c31a944b"><path d="M 14 51 L 51 51 L 51 74.980469 L 14 74.980469 Z M 14 51 " clip-rule="nonzero"/></clipPath><clipPath id="68808551ab"><path d="M 35 53 L 63 53 L 63 74.980469 L 35 74.980469 Z M 35 53 " clip-rule="nonzero"/></clipPath><clipPath id="a1e98ca77e"><path d="M 45 53 L 70 53 L 70 74.980469 L 45 74.980469 Z M 45 53 " clip-rule="nonzero"/></clipPath><clipPath id="75c49cd00b"><path d="M 67 58 L 82 58 L 82 74.980469 L 67 74.980469 Z M 67 58 " clip-rule="nonzero"/></clipPath><clipPath id="84f32d2fb7"><path d="M 0 9.765625 L 28 9.765625 L 28 21 L 0 21 Z M 0 9.765625 " clip-rule="nonzero"/></clipPath></defs><g transform="matrix(1, 0, 0, 1, 74, 62)"><g clip-path="url(#de75617b57)"><g clip-path="url(#035ee18062)"><g fill="#000000" fill-opacity="1"><g transform="translate(0.539073, 4.562045)"><g><path d="M 0.65625 -0.4375 L 0.671875 -0.40625 C 0.640625 -0.28125 0.59375 -0.132812 0.53125 0.03125 C 0.476562 0.195312 0.414062 0.347656 0.34375 0.484375 L 0.109375 0.484375 C 0.148438 0.359375 0.1875 0.203125 0.21875 0.015625 C 0.257812 -0.171875 0.289062 -0.320312 0.3125 -0.4375 Z M 0.65625 -0.4375 "/></g></g></g></g></g></g><g clip-path="url(#084a4d6843)"><path fill="#000000" d="M 224.878906 54.25 L 224.878906 57.734375 C 202.53125 40.839844 180.960938 25.441406 179.554688 24.441406 L 195.5625 35.074219 C 203.671875 40.460938 214.085938 47.257812 224.878906 54.25 Z M 224.878906 54.25 " fill-opacity="1" fill-rule="nonzero"/></g><g clip-path="url(#927123f466)"><path fill="#000000" d="M 224.878906 45.777344 L 224.878906 47.816406 C 219.082031 43.96875 213.617188 40.402344 208.996094 37.414062 C 201.242188 32.453125 195.835938 28.984375 194.851562 28.339844 C 196.375 29.234375 209.164062 36.734375 224.878906 45.777344 Z M 224.878906 45.777344 " fill-opacity="1" fill-rule="nonzero"/></g><g clip-path="url(#b166469c0c)"><path fill="#000000" d="M 224.878906 38.550781 L 224.878906 38.875 C 222.035156 37.242188 220.167969 36.179688 219.695312 35.917969 C 220.179688 36.125 222.046875 37.089844 224.878906 38.550781 Z M 224.878906 38.550781 " fill-opacity="1" fill-rule="nonzero"/></g><g clip-path="url(#7103d7eedf)"><path fill="#000000" d="M 224.878906 24.398438 L 224.878906 25.71875 C 221.679688 24.273438 218.671875 22.914062 215.921875 21.691406 C 207.417969 17.914062 201.46875 15.300781 200.390625 14.792969 C 201.785156 15.347656 211.707031 19.28125 224.878906 24.398438 Z M 224.878906 24.398438 " fill-opacity="1" fill-rule="nonzero"/></g><g clip-path="url(#1e55c2fe18)"><path fill="#000000" d="M 153.371094 91.320312 L 151.519531 91.320312 C 145.675781 72.820312 140.695312 57.933594 139.894531 55.550781 C 140.816406 57.984375 146.359375 72.976562 153.371094 91.320312 Z M 153.371094 91.320312 " fill-opacity="1" fill-rule="nonzero"/></g><g clip-path="url(#3dcc5cb18c)"><path fill="#000000" d="M 160.472656 91.320312 L 159.203125 91.320312 C 154.261719 78.441406 150.441406 68.792969 149.925781 67.441406 C 150.492188 68.792969 154.730469 78.503906 160.472656 91.320312 Z M 160.472656 91.320312 " fill-opacity="1" fill-rule="nonzero"/></g><g clip-path="url(#afb3d8217a)"><path fill="#000000" d="M 182.640625 91.320312 L 180.496094 91.320312 C 177.015625 85.128906 173.695312 79.335938 170.871094 74.472656 L 162.316406 59.742188 C 163.363281 61.355469 172.054688 75.046875 182.640625 91.320312 Z M 182.640625 91.320312 " fill-opacity="1" fill-rule="nonzero"/></g><g clip-path="url(#a726c5f5d4)"><path fill="#000000" d="M 202.074219 91.320312 L 198.503906 91.320312 C 183.78125 70.675781 169.480469 51.617188 168.089844 49.753906 C 169.585938 51.617188 185.355469 71.214844 202.074219 91.320312 Z M 202.074219 91.320312 " fill-opacity="1" fill-rule="nonzero"/></g><g clip-path="url(#5b4d823913)"><path fill="#000000" d="M 214.925781 91.320312 L 210.054688 91.320312 C 209.332031 90.445312 208.625 89.578125 207.898438 88.679688 C 190.105469 66.597656 171.6875 45.144531 170.007812 43.167969 C 171.746094 45.082031 190.878906 65.988281 210.378906 86.535156 C 211.894531 88.136719 213.417969 89.730469 214.925781 91.320312 Z M 214.925781 91.320312 " fill-opacity="1" fill-rule="nonzero"/></g><g clip-path="url(#a70cb23f07)"><path fill="#000000" d="M 224.878906 91.101562 L 224.878906 91.320312 L 222.742188 91.320312 C 212.339844 79.96875 203.03125 70.003906 201.707031 68.609375 C 203.121094 69.980469 213.429688 80.042969 224.878906 91.101562 Z M 224.878906 91.101562 " fill-opacity="1" fill-rule="nonzero"/></g><g clip-path="url(#2b5ba72899)"><path fill="#000000" d="M 224.878906 81.292969 L 224.878906 82.976562 C 215.503906 73.679688 207.773438 66.183594 207.15625 65.597656 C 207.796875 66.148438 215.382812 72.914062 224.878906 81.292969 Z M 224.878906 81.292969 " fill-opacity="1" fill-rule="nonzero"/></g><g clip-path="url(#5664ca412d)"><path fill="#000000" d="M 224.878906 69.671875 L 224.878906 74.039062 C 224.410156 73.605469 223.945312 73.1875 223.476562 72.761719 C 212.460938 62.738281 201.3125 52.835938 192.894531 45.453125 C 184.976562 38.59375 179.5625 33.871094 178.894531 33.308594 C 180.273438 34.417969 202.3125 52.144531 224.878906 69.671875 Z M 224.878906 69.671875 " fill-opacity="1" fill-rule="nonzero"/></g><g clip-path="url(#a8601a9516)"><path fill="#000000" d="M 224.878906 61.875 L 224.878906 62.699219 C 218.839844 57.882812 214.582031 54.523438 214.0625 54.117188 Z M 224.878906 61.875 " fill-opacity="1" fill-rule="nonzero"/></g><g clip-path="url(#80052622e3)"><path fill="#000000" d="M 89.59375 56.75 C 89.257812 57.984375 85.15625 72.652344 80.144531 91.320312 L 78.445312 91.320312 C 84.582031 72.738281 89.222656 57.984375 89.59375 56.75 Z M 89.59375 56.75 " fill-opacity="1" fill-rule="nonzero"/></g><g clip-path="url(#8639f6ec62)"><path fill="#000000" d="M 90.648438 72.488281 C 90.382812 73.6875 88.792969 81.019531 86.628906 91.320312 L 85.742188 91.320312 C 88.46875 81.03125 90.347656 73.6875 90.648438 72.488281 Z M 90.648438 72.488281 " fill-opacity="1" fill-rule="nonzero"/></g><g clip-path="url(#a893b60e37)"><path fill="#000000" d="M 103.40625 91.320312 C 104.445312 81.613281 105.101562 74.765625 105.222656 73.582031 C 105.152344 74.742188 104.734375 81.582031 104.195312 91.320312 Z M 103.40625 91.320312 " fill-opacity="1" fill-rule="nonzero"/></g><g clip-path="url(#53f948bea7)"><path fill="#000000" d="M 116.996094 91.320312 L 116.027344 91.320312 C 115.960938 78.03125 115.800781 68.753906 115.800781 68.753906 C 115.800781 68.753906 116.25 78.03125 116.996094 91.320312 Z M 116.996094 91.320312 " fill-opacity="1" fill-rule="nonzero"/></g><g clip-path="url(#472a74dce7)"><path fill="#000000" d="M 124.355469 91.320312 L 123.195312 91.320312 C 122.144531 75.785156 121.242188 64.59375 121.242188 64.59375 C 121.242188 64.59375 122.488281 75.808594 124.355469 91.320312 Z M 124.355469 91.320312 " fill-opacity="1" fill-rule="nonzero"/></g><g clip-path="url(#ac17fc7da3)"><path fill="#000000" d="M 142.25 91.320312 L 140.871094 91.320312 C 139.976562 87.3125 139.132812 83.535156 138.347656 80.125 C 135.816406 69.230469 134.121094 61.960938 134.121094 61.960938 C 134.121094 61.960938 137.535156 74.527344 142.25 91.320312 Z M 142.25 91.320312 " fill-opacity="1" fill-rule="nonzero"/></g><path fill="#000000" d="M 48.058594 28.414062 C 45.949219 30.09375 22.90625 48.390625 0.203125 67.132812 L -0.00390625 67.300781 L -0.00390625 63.167969 C 23.484375 46.695312 45.949219 29.953125 48.058594 28.414062 Z M 48.058594 28.414062 " fill-opacity="1" fill-rule="nonzero"/><g clip-path="url(#2ea620c749)"><path fill="#000000" d="M 39.792969 41.722656 C 38.054688 43.285156 18.921875 60.355469 -0.00390625 77.804688 L -0.00390625 73.996094 C 19.53125 58.554688 38.03125 43.167969 39.792969 41.722656 Z M 39.792969 41.722656 " fill-opacity="1" fill-rule="nonzero"/></g><g clip-path="url(#462ba9bc49)"><path fill="#000000" d="M 25.03125 63.054688 C 24.246094 63.84375 12.609375 75.421875 -0.00390625 88.207031 L -0.00390625 85.679688 C 12.886719 74.191406 24.234375 63.789062 25.03125 63.054688 Z M 25.03125 63.054688 " fill-opacity="1" fill-rule="nonzero"/></g><g clip-path="url(#59c31a944b)"><path fill="#000000" d="M 50.957031 51.234375 C 49.503906 53.011719 34.070312 71.699219 18.367188 91.328125 L 14.511719 91.328125 C 32.269531 72.332031 49.386719 53.027344 50.957031 51.234375 Z M 50.957031 51.234375 " fill-opacity="1" fill-rule="nonzero"/></g><g clip-path="url(#68808551ab)"><path fill="#000000" d="M 51.910156 68.210938 C 57.554688 60.253906 61.492188 54.683594 62.195312 53.726562 C 61.035156 55.5 50.136719 72.175781 37.980469 91.320312 L 35.15625 91.320312 C 41.382812 82.851562 47.25 74.742188 51.910156 68.210938 Z M 51.910156 68.210938 " fill-opacity="1" fill-rule="nonzero"/></g><g clip-path="url(#a1e98ca77e)"><path fill="#000000" d="M 69.097656 53.402344 C 68.390625 54.652344 58.867188 71.464844 47.957031 91.339844 L 45.421875 91.339844 C 57.914062 71.738281 68.351562 54.632812 69.097656 53.402344 Z M 69.097656 53.402344 " fill-opacity="1" fill-rule="nonzero"/></g><g clip-path="url(#75c49cd00b)"><path fill="#000000" d="M 81.105469 58.804688 C 80.878906 59.386719 75.585938 73.382812 69.011719 91.34375 L 67.273438 91.34375 C 75.007812 73.507812 80.839844 59.398438 81.105469 58.804688 Z M 81.105469 58.804688 " fill-opacity="1" fill-rule="nonzero"/></g><g clip-path="url(#84f32d2fb7)"><path fill="#000000" d="M 27.699219 9.726562 C 26.175781 10.308594 14.777344 14.660156 -0.00390625 20.441406 L -0.00390625 19.019531 C 14.851562 14.136719 26.164062 10.257812 27.699219 9.726562 Z M 27.699219 9.726562 " fill-opacity="1" fill-rule="nonzero"/></g><path fill="#000000" d="M 33.371094 13.527344 C 31.59375 14.347656 17.425781 20.839844 -0.00390625 29.035156 L -0.00390625 27.175781 C 17.613281 20.136719 31.648438 14.253906 33.371094 13.527344 Z M 33.371094 13.527344 " fill-opacity="1" fill-rule="nonzero"/><path fill="#000000" d="M 0.476562 42.085938 C 0.359375 42.167969 0.203125 42.261719 -0.00390625 42.390625 L -0.00390625 42.359375 C 0.203125 42.234375 0.371094 42.140625 0.476562 42.085938 Z M 0.476562 42.085938 " fill-opacity="1" fill-rule="nonzero"/><path fill="#000000" d="M -0.00390625 48.910156 C 19.949219 37.246094 37.324219 26.601562 39.765625 25.113281 C 37.324219 26.71875 19.625 38.402344 -0.00390625 51.722656 Z M -0.00390625 48.910156 " fill-opacity="1" fill-rule="nonzero"/><path fill="#000000" d="M -0.00390625 58.449219 C 4.980469 55.121094 8.457031 52.761719 9.269531 52.210938 C 8.457031 52.792969 4.9375 55.40625 -0.00390625 59.105469 Z M -0.00390625 58.449219 " fill-opacity="1" fill-rule="nonzero"/></svg>