<svg xmlns="http://www.w3.org/2000/svg" xmlns:xlink="http://www.w3.org/1999/xlink" width="110" zoomAndPan="magnify" viewBox="0 0 82.5 56.249996" height="75" preserveAspectRatio="xMidYMid meet" version="1.0"><defs><g/><clipPath id="d51aae4151"><path d="M 0.296875 0 L 81.710938 0 L 81.710938 55.511719 L 0.296875 55.511719 Z M 0.296875 0 " clip-rule="nonzero"/></clipPath><clipPath id="2866b69196"><path d="M -2.175781 28.175781 L 67.25 -8.363281 L 85.175781 25.695312 L 15.75 62.234375 Z M -2.175781 28.175781 " clip-rule="nonzero"/></clipPath><clipPath id="75e7e353db"><path d="M 56 1 L 72 1 L 72 32 L 56 32 Z M 56 1 " clip-rule="nonzero"/></clipPath><clipPath id="af39a0b380"><path d="M -2.175781 28.175781 L 67.25 -8.363281 L 85.175781 25.695312 L 15.75 62.234375 Z M -2.175781 28.175781 " clip-rule="nonzero"/></clipPath><clipPath id="21460c3f04"><path d="M 67.273438 -8.375 L -2.152344 28.164062 L 15.769531 62.222656 L 85.195312 25.683594 Z M 67.273438 -8.375 " clip-rule="nonzero"/></clipPath><clipPath id="3e148d6eef"><path d="M 67.273438 -8.375 L -2.152344 28.164062 L 15.769531 62.222656 L 85.195312 25.683594 Z M 67.273438 -8.375 " clip-rule="nonzero"/></clipPath><clipPath id="403cefedee"><path d="M 47 14 L 54 14 L 54 28 L 47 28 Z M 47 14 " clip-rule="nonzero"/></clipPath><clipPath id="7cee159fc2"><path d="M -2.175781 28.175781 L 67.25 -8.363281 L 85.175781 25.695312 L 15.75 62.234375 Z M -2.175781 28.175781 " clip-rule="nonzero"/></clipPath><clipPath id="d8de8c006d"><path d="M 67.273438 -8.375 L -2.152344 28.164062 L 15.769531 62.222656 L 85.195312 25.683594 Z M 67.273438 -8.375 " clip-rule="nonzero"/></clipPath><clipPath id="3b1c1c1d24"><path d="M 67.273438 -8.375 L -2.152344 28.164062 L 15.769531 62.222656 L 85.195312 25.683594 Z M 67.273438 -8.375 " clip-rule="nonzero"/></clipPath><clipPath id="301b96454a"><path d="M 27 9 L 47 9 L 47 33 L 27 33 Z M 27 9 " clip-rule="nonzero"/></clipPath><clipPath id="5f325bcc38"><path d="M -2.175781 28.175781 L 67.25 -8.363281 L 85.175781 25.695312 L 15.75 62.234375 Z M -2.175781 28.175781 " clip-rule="nonzero"/></clipPath><clipPath id="cf7584a634"><path d="M 67.273438 -8.375 L -2.152344 28.164062 L 15.769531 62.222656 L 85.195312 25.683594 Z M 67.273438 -8.375 " clip-rule="nonzero"/></clipPath><clipPath id="c727b70293"><path d="M 67.273438 -8.375 L -2.152344 28.164062 L 15.769531 62.222656 L 85.195312 25.683594 Z M 67.273438 -8.375 " clip-rule="nonzero"/></clipPath><clipPath id="5ece7e3010"><path d="M 25 25 L 40 25 L 40 35 L 25 35 Z M 25 25 " clip-rule="nonzero"/></clipPath><clipPath id="0e0f215404"><path d="M -2.175781 28.175781 L 67.25 -8.363281 L 85.175781 25.695312 L 15.75 62.234375 Z M -2.175781 28.175781 " clip-rule="nonzero"/></clipPath><clipPath id="49e9136d96"><path d="M 67.273438 -8.375 L -2.152344 28.164062 L 15.769531 62.222656 L 85.195312 25.683594 Z M 67.273438 -8.375 " clip-rule="nonzero"/></clipPath><clipPath id="94ba148fc9"><path d="M 67.273438 -8.375 L -2.152344 28.164062 L 15.769531 62.222656 L 85.195312 25.683594 Z M 67.273438 -8.375 " clip-rule="nonzero"/></clipPath><clipPath id="99bc4edc7e"><path d="M 63 22 L 78 22 L 78 31 L 63 31 Z M 63 22 " clip-rule="nonzero"/></clipPath><clipPath id="8035bf1421"><path d="M -2.175781 28.175781 L 67.25 -8.363281 L 85.175781 25.695312 L 15.75 62.234375 Z M -2.175781 28.175781 " clip-rule="nonzero"/></clipPath><clipPath id="e87c8de361"><path d="M 67.273438 -8.375 L -2.152344 28.164062 L 15.769531 62.222656 L 85.195312 25.683594 Z M 67.273438 -8.375 " clip-rule="nonzero"/></clipPath><clipPath id="3f6e234e7a"><path d="M 67.273438 -8.375 L -2.152344 28.164062 L 15.769531 62.222656 L 85.195312 25.683594 Z M 67.273438 -8.375 " clip-rule="nonzero"/></clipPath><clipPath id="76b25f7442"><path d="M 4 30 L 36 30 L 36 44 L 4 44 Z M 4 30 " clip-rule="nonzero"/></clipPath><clipPath id="c9cda4f944"><path d="M -2.175781 28.175781 L 67.25 -8.363281 L 85.175781 25.695312 L 15.75 62.234375 Z M -2.175781 28.175781 " clip-rule="nonzero"/></clipPath><clipPath id="03ffd6c866"><path d="M 67.273438 -8.375 L -2.152344 28.164062 L 15.769531 62.222656 L 85.195312 25.683594 Z M 67.273438 -8.375 " clip-rule="nonzero"/></clipPath><clipPath id="19b62b0dc0"><path d="M 67.273438 -8.375 L -2.152344 28.164062 L 15.769531 62.222656 L 85.195312 25.683594 Z M 67.273438 -8.375 " clip-rule="nonzero"/></clipPath><clipPath id="ad31a796bf"><path d="M 19 48 L 34 48 L 34 55 L 19 55 Z M 19 48 " clip-rule="nonzero"/></clipPath><clipPath id="514e7967e5"><path d="M -2.175781 28.175781 L 67.25 -8.363281 L 85.175781 25.695312 L 15.75 62.234375 Z M -2.175781 28.175781 " clip-rule="nonzero"/></clipPath><clipPath id="d1d54433f0"><path d="M 67.273438 -8.375 L -2.152344 28.164062 L 15.769531 62.222656 L 85.195312 25.683594 Z M 67.273438 -8.375 " clip-rule="nonzero"/></clipPath><clipPath id="62bdd98ec4"><path d="M 67.273438 -8.375 L -2.152344 28.164062 L 15.769531 62.222656 L 85.195312 25.683594 Z M 67.273438 -8.375 " clip-rule="nonzero"/></clipPath><clipPath id="14188a31aa"><path d="M 57 0 L 74 0 L 74 32 L 57 32 Z M 57 0 " clip-rule="nonzero"/></clipPath><clipPath id="1109068a3d"><path d="M -2.175781 28.175781 L 67.25 -8.363281 L 85.175781 25.695312 L 15.75 62.234375 Z M -2.175781 28.175781 " clip-rule="nonzero"/></clipPath><clipPath id="059c95d731"><path d="M 67.273438 -8.375 L -2.152344 28.164062 L 15.769531 62.222656 L 85.195312 25.683594 Z M 67.273438 -8.375 " clip-rule="nonzero"/></clipPath><clipPath id="3b84b127db"><path d="M 67.273438 -8.375 L -2.152344 28.164062 L 15.769531 62.222656 L 85.195312 25.683594 Z M 67.273438 -8.375 " clip-rule="nonzero"/></clipPath><clipPath id="e88622ef75"><path d="M 48 13 L 56 13 L 56 28 L 48 28 Z M 48 13 " clip-rule="nonzero"/></clipPath><clipPath id="a052c2733a"><path d="M -2.175781 28.175781 L 67.25 -8.363281 L 85.175781 25.695312 L 15.75 62.234375 Z M -2.175781 28.175781 " clip-rule="nonzero"/></clipPath><clipPath id="bec95cf6d4"><path d="M 67.273438 -8.375 L -2.152344 28.164062 L 15.769531 62.222656 L 85.195312 25.683594 Z M 67.273438 -8.375 " clip-rule="nonzero"/></clipPath><clipPath id="71cf6b4a18"><path d="M 67.273438 -8.375 L -2.152344 28.164062 L 15.769531 62.222656 L 85.195312 25.683594 Z M 67.273438 -8.375 " clip-rule="nonzero"/></clipPath><clipPath id="124c017fb6"><path d="M 28 8 L 48 8 L 48 32 L 28 32 Z M 28 8 " clip-rule="nonzero"/></clipPath><clipPath id="150a0a1905"><path d="M -2.175781 28.175781 L 67.25 -8.363281 L 85.175781 25.695312 L 15.75 62.234375 Z M -2.175781 28.175781 " clip-rule="nonzero"/></clipPath><clipPath id="4608aef029"><path d="M 67.273438 -8.375 L -2.152344 28.164062 L 15.769531 62.222656 L 85.195312 25.683594 Z M 67.273438 -8.375 " clip-rule="nonzero"/></clipPath><clipPath id="fedc5977a1"><path d="M 67.273438 -8.375 L -2.152344 28.164062 L 15.769531 62.222656 L 85.195312 25.683594 Z M 67.273438 -8.375 " clip-rule="nonzero"/></clipPath><clipPath id="31420877bc"><path d="M 27 25 L 42 25 L 42 35 L 27 35 Z M 27 25 " clip-rule="nonzero"/></clipPath><clipPath id="68e068b96c"><path d="M -2.175781 28.175781 L 67.25 -8.363281 L 85.175781 25.695312 L 15.75 62.234375 Z M -2.175781 28.175781 " clip-rule="nonzero"/></clipPath><clipPath id="827fbe350c"><path d="M 67.273438 -8.375 L -2.152344 28.164062 L 15.769531 62.222656 L 85.195312 25.683594 Z M 67.273438 -8.375 " clip-rule="nonzero"/></clipPath><clipPath id="5c8b001867"><path d="M 67.273438 -8.375 L -2.152344 28.164062 L 15.769531 62.222656 L 85.195312 25.683594 Z M 67.273438 -8.375 " clip-rule="nonzero"/></clipPath><clipPath id="46ec872d29"><path d="M 64 22 L 79 22 L 79 31 L 64 31 Z M 64 22 " clip-rule="nonzero"/></clipPath><clipPath id="18c8ecfa68"><path d="M -2.175781 28.175781 L 67.25 -8.363281 L 85.175781 25.695312 L 15.75 62.234375 Z M -2.175781 28.175781 " clip-rule="nonzero"/></clipPath><clipPath id="2ce53c28d0"><path d="M 67.273438 -8.375 L -2.152344 28.164062 L 15.769531 62.222656 L 85.195312 25.683594 Z M 67.273438 -8.375 " clip-rule="nonzero"/></clipPath><clipPath id="e221159555"><path d="M 67.273438 -8.375 L -2.152344 28.164062 L 15.769531 62.222656 L 85.195312 25.683594 Z M 67.273438 -8.375 " clip-rule="nonzero"/></clipPath><clipPath id="d7498a6764"><path d="M 6 29 L 38 29 L 38 44 L 6 44 Z M 6 29 " clip-rule="nonzero"/></clipPath><clipPath id="b5e4c1270c"><path d="M -2.175781 28.175781 L 67.25 -8.363281 L 85.175781 25.695312 L 15.75 62.234375 Z M -2.175781 28.175781 " clip-rule="nonzero"/></clipPath><clipPath id="2aac0088f4"><path d="M 67.273438 -8.375 L -2.152344 28.164062 L 15.769531 62.222656 L 85.195312 25.683594 Z M 67.273438 -8.375 " clip-rule="nonzero"/></clipPath><clipPath id="0a5bca2f48"><path d="M 67.273438 -8.375 L -2.152344 28.164062 L 15.769531 62.222656 L 85.195312 25.683594 Z M 67.273438 -8.375 " clip-rule="nonzero"/></clipPath><clipPath id="29e7a3639a"><path d="M 21 47 L 36 47 L 36 55 L 21 55 Z M 21 47 " clip-rule="nonzero"/></clipPath><clipPath id="7367b19ece"><path d="M -2.175781 28.175781 L 67.25 -8.363281 L 85.175781 25.695312 L 15.75 62.234375 Z M -2.175781 28.175781 " clip-rule="nonzero"/></clipPath><clipPath id="23229de9d4"><path d="M 67.273438 -8.375 L -2.152344 28.164062 L 15.769531 62.222656 L 85.195312 25.683594 Z M 67.273438 -8.375 " clip-rule="nonzero"/></clipPath><clipPath id="f3dff160fb"><path d="M 67.273438 -8.375 L -2.152344 28.164062 L 15.769531 62.222656 L 85.195312 25.683594 Z M 67.273438 -8.375 " clip-rule="nonzero"/></clipPath><clipPath id="01faa3c179"><path d="M 57 0 L 74 0 L 74 32 L 57 32 Z M 57 0 " clip-rule="nonzero"/></clipPath><clipPath id="378a163d49"><path d="M -2.175781 28.175781 L 67.25 -8.363281 L 85.175781 25.695312 L 15.75 62.234375 Z M -2.175781 28.175781 " clip-rule="nonzero"/></clipPath><clipPath id="5315410964"><path d="M 67.273438 -8.375 L -2.152344 28.164062 L 15.769531 62.222656 L 85.195312 25.683594 Z M 67.273438 -8.375 " clip-rule="nonzero"/></clipPath><clipPath id="ffc4021a2e"><path d="M 67.273438 -8.375 L -2.152344 28.164062 L 15.769531 62.222656 L 85.195312 25.683594 Z M 67.273438 -8.375 " clip-rule="nonzero"/></clipPath><clipPath id="195fe02352"><path d="M 48 13 L 56 13 L 56 29 L 48 29 Z M 48 13 " clip-rule="nonzero"/></clipPath><clipPath id="8f003a3e78"><path d="M -2.175781 28.175781 L 67.25 -8.363281 L 85.175781 25.695312 L 15.75 62.234375 Z M -2.175781 28.175781 " clip-rule="nonzero"/></clipPath><clipPath id="5db8904ce2"><path d="M 67.273438 -8.375 L -2.152344 28.164062 L 15.769531 62.222656 L 85.195312 25.683594 Z M 67.273438 -8.375 " clip-rule="nonzero"/></clipPath><clipPath id="124660b2e7"><path d="M 67.273438 -8.375 L -2.152344 28.164062 L 15.769531 62.222656 L 85.195312 25.683594 Z M 67.273438 -8.375 " clip-rule="nonzero"/></clipPath><clipPath id="e0a0ed108e"><path d="M 28 8 L 49 8 L 49 33 L 28 33 Z M 28 8 " clip-rule="nonzero"/></clipPath><clipPath id="ae49064d3d"><path d="M -2.175781 28.175781 L 67.25 -8.363281 L 85.175781 25.695312 L 15.75 62.234375 Z M -2.175781 28.175781 " clip-rule="nonzero"/></clipPath><clipPath id="1ab5af08f8"><path d="M 67.273438 -8.375 L -2.152344 28.164062 L 15.769531 62.222656 L 85.195312 25.683594 Z M 67.273438 -8.375 " clip-rule="nonzero"/></clipPath><clipPath id="e966049d8a"><path d="M 67.273438 -8.375 L -2.152344 28.164062 L 15.769531 62.222656 L 85.195312 25.683594 Z M 67.273438 -8.375 " clip-rule="nonzero"/></clipPath><clipPath id="1e012b2dbd"><path d="M 27 24 L 42 24 L 42 35 L 27 35 Z M 27 24 " clip-rule="nonzero"/></clipPath><clipPath id="ba3cd50fa2"><path d="M -2.175781 28.175781 L 67.25 -8.363281 L 85.175781 25.695312 L 15.75 62.234375 Z M -2.175781 28.175781 " clip-rule="nonzero"/></clipPath><clipPath id="aeace3b3b3"><path d="M 67.273438 -8.375 L -2.152344 28.164062 L 15.769531 62.222656 L 85.195312 25.683594 Z M 67.273438 -8.375 " clip-rule="nonzero"/></clipPath><clipPath id="f87ae7e728"><path d="M 67.273438 -8.375 L -2.152344 28.164062 L 15.769531 62.222656 L 85.195312 25.683594 Z M 67.273438 -8.375 " clip-rule="nonzero"/></clipPath><clipPath id="fe673eb817"><path d="M 64 22 L 80 22 L 80 31 L 64 31 Z M 64 22 " clip-rule="nonzero"/></clipPath><clipPath id="1bdee7f175"><path d="M -2.175781 28.175781 L 67.25 -8.363281 L 85.175781 25.695312 L 15.75 62.234375 Z M -2.175781 28.175781 " clip-rule="nonzero"/></clipPath><clipPath id="d912df7a42"><path d="M 67.273438 -8.375 L -2.152344 28.164062 L 15.769531 62.222656 L 85.195312 25.683594 Z M 67.273438 -8.375 " clip-rule="nonzero"/></clipPath><clipPath id="ccb4cd7073"><path d="M 67.273438 -8.375 L -2.152344 28.164062 L 15.769531 62.222656 L 85.195312 25.683594 Z M 67.273438 -8.375 " clip-rule="nonzero"/></clipPath><clipPath id="68f3181c84"><path d="M 5 29 L 38 29 L 38 44 L 5 44 Z M 5 29 " clip-rule="nonzero"/></clipPath><clipPath id="9b22daeebb"><path d="M -2.175781 28.175781 L 67.25 -8.363281 L 85.175781 25.695312 L 15.75 62.234375 Z M -2.175781 28.175781 " clip-rule="nonzero"/></clipPath><clipPath id="13afce43cc"><path d="M 67.273438 -8.375 L -2.152344 28.164062 L 15.769531 62.222656 L 85.195312 25.683594 Z M 67.273438 -8.375 " clip-rule="nonzero"/></clipPath><clipPath id="36207588c2"><path d="M 67.273438 -8.375 L -2.152344 28.164062 L 15.769531 62.222656 L 85.195312 25.683594 Z M 67.273438 -8.375 " clip-rule="nonzero"/></clipPath><clipPath id="1666ded2d0"><path d="M 20 47 L 36 47 L 36 55 L 20 55 Z M 20 47 " clip-rule="nonzero"/></clipPath><clipPath id="2d17369495"><path d="M -2.175781 28.175781 L 67.25 -8.363281 L 85.175781 25.695312 L 15.75 62.234375 Z M -2.175781 28.175781 " clip-rule="nonzero"/></clipPath><clipPath id="9786d38f16"><path d="M 67.273438 -8.375 L -2.152344 28.164062 L 15.769531 62.222656 L 85.195312 25.683594 Z M 67.273438 -8.375 " clip-rule="nonzero"/></clipPath><clipPath id="8ccb1d0d14"><path d="M 67.273438 -8.375 L -2.152344 28.164062 L 15.769531 62.222656 L 85.195312 25.683594 Z M 67.273438 -8.375 " clip-rule="nonzero"/></clipPath><clipPath id="26660addac"><rect x="0" width="82" y="0" height="56"/></clipPath></defs><g fill="#000000" fill-opacity="1"><g transform="translate(21.386361, 52.72203)"><g><path d="M 0.34375 -0.234375 L 0.34375 -0.203125 C 0.332031 -0.140625 0.3125 -0.0664062 0.28125 0.015625 C 0.25 0.0976562 0.21875 0.175781 0.1875 0.25 L 0.0625 0.25 C 0.0820312 0.1875 0.101562 0.101562 0.125 0 C 0.144531 -0.09375 0.15625 -0.171875 0.15625 -0.234375 Z M 0.34375 -0.234375 "/></g></g></g><g clip-path="url(#d51aae4151)"><g clip-path="url(#2866b69196)"><g transform="matrix(1, 0, 0, 1, 0.000000000000000056, 0.000000000000004134)"><g clip-path="url(#26660addac)"><g clip-path="url(#75e7e353db)"><g clip-path="url(#af39a0b380)"><g clip-path="url(#21460c3f04)"><g clip-path="url(#3e148d6eef)"><path fill="#000000" d="M 59.746094 31.328125 L 71.652344 4.464844 C 71.6875 4.390625 71.644531 4.304688 71.566406 4.28125 L 61.117188 1.242188 C 61.039062 1.222656 60.957031 1.269531 60.945312 1.351562 L 56.03125 29.90625 C 56.023438 29.96875 56.054688 30.03125 56.117188 30.054688 L 59.574219 31.398438 C 59.640625 31.421875 59.714844 31.390625 59.746094 31.324219 Z M 59.746094 31.328125 " fill-opacity="1" fill-rule="nonzero"/></g></g></g></g><g clip-path="url(#403cefedee)"><g clip-path="url(#7cee159fc2)"><g clip-path="url(#d8de8c006d)"><g clip-path="url(#3b1c1c1d24)"><path fill="#000000" d="M 49.503906 27.796875 L 53.6875 15.042969 C 53.714844 14.964844 53.660156 14.878906 53.574219 14.867188 L 47.394531 14.167969 C 47.304688 14.15625 47.230469 14.234375 47.246094 14.320312 L 49.242188 27.773438 C 49.261719 27.914062 49.457031 27.929688 49.503906 27.796875 Z M 49.503906 27.796875 " fill-opacity="1" fill-rule="nonzero"/></g></g></g></g><g clip-path="url(#301b96454a)"><g clip-path="url(#5f325bcc38)"><g clip-path="url(#cf7584a634)"><g clip-path="url(#c727b70293)"><path fill="#000000" d="M 43.082031 32.105469 L 27.105469 15.441406 C 27.050781 15.386719 27.054688 15.296875 27.113281 15.246094 L 34.195312 9.070312 C 34.257812 9.015625 34.359375 9.03125 34.398438 9.105469 L 46.085938 29.53125 C 46.117188 29.589844 46.105469 29.660156 46.058594 29.703125 L 43.265625 32.113281 C 43.210938 32.160156 43.128906 32.15625 43.082031 32.105469 Z M 43.082031 32.105469 " fill-opacity="1" fill-rule="nonzero"/></g></g></g></g><g clip-path="url(#5ece7e3010)"><g clip-path="url(#0e0f215404)"><g clip-path="url(#49e9136d96)"><g clip-path="url(#94ba148fc9)"><path fill="#000000" d="M 39.027344 34.535156 L 25.945312 31.585938 C 25.859375 31.566406 25.816406 31.476562 25.851562 31.398438 L 28.421875 25.730469 C 28.457031 25.648438 28.5625 25.625 28.628906 25.679688 L 39.144531 34.296875 C 39.253906 34.386719 39.167969 34.5625 39.027344 34.53125 Z M 39.027344 34.535156 " fill-opacity="1" fill-rule="nonzero"/></g></g></g></g><g clip-path="url(#99bc4edc7e)"><g clip-path="url(#8035bf1421)"><g clip-path="url(#e87c8de361)"><g clip-path="url(#3f6e234e7a)"><path fill="#000000" d="M 63.417969 30.1875 L 74.667969 22.984375 C 74.742188 22.9375 74.839844 22.96875 74.867188 23.050781 L 77.050781 28.921875 C 77.082031 29.003906 77.027344 29.09375 76.9375 29.101562 L 63.503906 30.4375 C 63.359375 30.449219 63.296875 30.265625 63.417969 30.1875 Z M 63.417969 30.1875 " fill-opacity="1" fill-rule="nonzero"/></g></g></g></g><g clip-path="url(#76b25f7442)"><g clip-path="url(#c9cda4f944)"><g clip-path="url(#03ffd6c866)"><g clip-path="url(#19b62b0dc0)"><path fill="#000000" d="M 34.789062 43.886719 L 4.898438 41.324219 C 4.824219 41.320312 4.769531 41.253906 4.777344 41.179688 L 5.660156 30.472656 C 5.667969 30.386719 5.753906 30.328125 5.839844 30.355469 L 35.398438 39.957031 C 35.460938 39.976562 35.5 40.039062 35.488281 40.105469 L 34.933594 43.769531 C 34.921875 43.839844 34.859375 43.890625 34.789062 43.886719 Z M 34.789062 43.886719 " fill-opacity="1" fill-rule="nonzero"/></g></g></g></g><g clip-path="url(#ad31a796bf)"><g clip-path="url(#514e7967e5)"><g clip-path="url(#d1d54433f0)"><g clip-path="url(#62bdd98ec4)"><path fill="#000000" d="M 33.292969 48.386719 L 21.496094 54.652344 C 21.417969 54.695312 21.324219 54.65625 21.300781 54.570312 L 19.59375 48.550781 C 19.566406 48.464844 19.632812 48.378906 19.71875 48.378906 L 33.230469 48.132812 C 33.371094 48.128906 33.417969 48.320312 33.292969 48.386719 Z M 33.292969 48.386719 " fill-opacity="1" fill-rule="nonzero"/></g></g></g></g><g clip-path="url(#14188a31aa)"><g clip-path="url(#1109068a3d)"><g clip-path="url(#059c95d731)"><g clip-path="url(#3b84b127db)"><path fill="#fedf57" d="M 61.273438 31.042969 L 73.292969 3.925781 L 62.550781 0.800781 L 57.59375 29.613281 Z M 61.273438 31.042969 " fill-opacity="1" fill-rule="nonzero"/></g></g></g></g><g clip-path="url(#e88622ef75)"><g clip-path="url(#a052c2733a)"><g clip-path="url(#bec95cf6d4)"><g clip-path="url(#71cf6b4a18)"><path fill="#fedf57" d="M 50.902344 27.9375 L 55.316406 14.484375 L 48.796875 13.746094 Z M 50.902344 27.9375 " fill-opacity="1" fill-rule="nonzero"/></g></g></g></g><g clip-path="url(#124c017fb6)"><g clip-path="url(#150a0a1905)"><g clip-path="url(#4608aef029)"><g clip-path="url(#fedc5977a1)"><path fill="#fedf57" d="M 44.75 31.796875 L 28.585938 14.9375 L 35.898438 8.5625 L 47.71875 29.226562 Z M 44.75 31.796875 " fill-opacity="1" fill-rule="nonzero"/></g></g></g></g><g clip-path="url(#31420877bc)"><g clip-path="url(#68e068b96c)"><g clip-path="url(#827fbe350c)"><g clip-path="url(#5c8b001867)"><path fill="#fedf57" d="M 41.164062 34.257812 L 27.363281 31.148438 L 30.074219 25.167969 Z M 41.164062 34.257812 " fill-opacity="1" fill-rule="nonzero"/></g></g></g></g><g clip-path="url(#46ec872d29)"><g clip-path="url(#18c8ecfa68)"><g clip-path="url(#2ce53c28d0)"><g clip-path="url(#e221159555)"><path fill="#fedf57" d="M 64.523438 30.089844 L 76.390625 22.492188 L 78.691406 28.683594 Z M 64.523438 30.089844 " fill-opacity="1" fill-rule="nonzero"/></g></g></g></g><g clip-path="url(#d7498a6764)"><g clip-path="url(#b5e4c1270c)"><g clip-path="url(#2aac0088f4)"><g clip-path="url(#0a5bca2f48)"><path fill="#fedf57" d="M 36.496094 43.496094 L 6.34375 40.914062 L 7.253906 29.902344 L 37.085938 39.589844 Z M 36.496094 43.496094 " fill-opacity="1" fill-rule="nonzero"/></g></g></g></g><g clip-path="url(#29e7a3639a)"><g clip-path="url(#7367b19ece)"><g clip-path="url(#23229de9d4)"><g clip-path="url(#f3dff160fb)"><path fill="#fedf57" d="M 35.371094 47.71875 L 22.925781 54.332031 L 21.125 47.980469 Z M 35.371094 47.71875 " fill-opacity="1" fill-rule="nonzero"/></g></g></g></g><g clip-path="url(#01faa3c179)"><g clip-path="url(#378a163d49)"><g clip-path="url(#5315410964)"><g clip-path="url(#ffc4021a2e)"><path stroke-linecap="round" transform="matrix(-0.0232719, 0.012248, 0.0122003, 0.0231813, 67.246515, -8.342973)" fill="none" stroke-linejoin="round" d="M 898.506629 1224.308179 L 13.815877 521.952919 L 319.943075 225.401334 L 997.007185 1110.590468 Z M 898.506629 1224.308179 " stroke="#000000" stroke-width="27.459999" stroke-opacity="1" stroke-miterlimit="4"/></g></g></g></g><g clip-path="url(#195fe02352)"><g clip-path="url(#8f003a3e78)"><g clip-path="url(#5db8904ce2)"><g clip-path="url(#124660b2e7)"><path stroke-linecap="round" transform="matrix(-0.0232719, 0.012248, 0.0122003, 0.0231813, 67.246515, -8.342973)" fill="none" stroke-linejoin="round" d="M 1192.49257 935.014059 L 805.709767 559.029275 L 1012.014517 418.178487 Z M 1192.49257 935.014059 " stroke="#000000" stroke-width="27.459999" stroke-opacity="1" stroke-miterlimit="4"/></g></g></g></g><g clip-path="url(#e0a0ed108e)"><g clip-path="url(#ae49064d3d)"><g clip-path="url(#1ab5af08f8)"><g clip-path="url(#e966049d8a)"><path stroke-linecap="round" transform="matrix(-0.0232719, 0.012248, 0.0122003, 0.0231813, 67.246515, -8.342973)" fill="none" stroke-linejoin="round" d="M 1467.864938 956.005748 L 1713.203686 99.095243 L 1354.241461 13.749199 L 1322.448149 921.958982 Z M 1467.864938 956.005748 " stroke="#000000" stroke-width="27.459999" stroke-opacity="1" stroke-miterlimit="4"/></g></g></g></g><g clip-path="url(#1e012b2dbd)"><g clip-path="url(#ba3cd50fa2)"><g clip-path="url(#aeace3b3b3)"><g clip-path="url(#f87ae7e728)"><path stroke-linecap="round" transform="matrix(-0.0232719, 0.012248, 0.0122003, 0.0231813, 67.246515, -8.342973)" fill="none" stroke-linejoin="round" d="M 1632.112827 975.384718 L 2041.437151 624.982211 L 1844.302644 471.152697 Z M 1632.112827 975.384718 " stroke="#000000" stroke-width="27.459999" stroke-opacity="1" stroke-miterlimit="4"/></g></g></g></g><g clip-path="url(#fe673eb817)"><g clip-path="url(#1bdee7f175)"><g clip-path="url(#d912df7a42)"><g clip-path="url(#ccb4cd7073)"><path stroke-linecap="round" transform="matrix(-0.0232719, 0.012248, 0.0122003, 0.0231813, 67.246515, -8.342973)" fill="none" stroke-linejoin="round" d="M 772.265875 1249.892258 L 238.387372 1204.221255 L 270.61527 1454.279858 Z M 772.265875 1249.892258 " stroke="#000000" stroke-width="27.459999" stroke-opacity="1" stroke-miterlimit="4"/></g></g></g></g><g clip-path="url(#68f3181c84)"><g clip-path="url(#9b22daeebb)"><g clip-path="url(#13afce43cc)"><g clip-path="url(#36207588c2)"><path stroke-linecap="round" transform="matrix(-0.0232719, 0.012248, 0.0122003, 0.0231813, 67.246515, -8.342973)" fill="none" stroke-linejoin="round" d="M 1952.795656 1204.472912 L 2921.682402 581.170192 L 2696.041277 225.363023 L 1863.768962 1083.002016 Z M 1952.795656 1204.472912 " stroke="#000000" stroke-width="27.459999" stroke-opacity="1" stroke-miterlimit="4"/></g></g></g></g><g clip-path="url(#1666ded2d0)"><g clip-path="url(#2d17369495)"><g clip-path="url(#9786d38f16)"><g clip-path="url(#8ccb1d0d14)"><path stroke-linecap="round" transform="matrix(-0.0232719, 0.012248, 0.0122003, 0.0231813, 67.246515, -8.342973)" fill="none" stroke-linejoin="round" d="M 2065.43361 1327.117837 L 2601.332748 1329.257005 L 2549.44373 1082.677638 Z M 2065.43361 1327.117837 " stroke="#000000" stroke-width="27.459999" stroke-opacity="1" stroke-miterlimit="4"/></g></g></g></g></g></g></g></g></svg>